<?xml version="1.0" encoding="utf-8"?>
<!-- Generator: Adobe Illustrator 12.0.0, SVG Export Plug-In  -->
<!DOCTYPE svg PUBLIC "-//W3C//DTD SVG 1.1//EN" "http://www.w3.org/Graphics/SVG/1.1/DTD/svg11.dtd" [
	<!ENTITY ns_flows "http://ns.adobe.com/Flows/1.0/">
	<!ENTITY ns_svg "http://www.w3.org/2000/svg">
	<!ENTITY ns_xlink "http://www.w3.org/1999/xlink">
]>
<svg  version="1.1" xmlns="&ns_svg;" xmlns:xlink="&ns_xlink;" xmlns:a="http://ns.adobe.com/AdobeSVGViewerExtensions/3.0/"
	 width="124" height="58" viewBox="1 1 124 58" enable-background="new 1 1 124 58" xml:space="preserve">
<defs>
</defs>
<rect display="none" fill="#FCAC00" width="160" height="60"/>
<g>
	<g>
		<path fill="#FFFFFF" d="M32.708,46.323c-2.43,4.026-6.834,6.729-11.88,6.729c-7.666,0-13.879-6.215-13.879-13.88
			c0-5.187,2.849-9.7,7.063-12.083l-1.571-5.865C5.688,24.386,1,31.224,1,39.172C1,50.123,9.877,59,20.828,59
			c6.684,0,12.582-3.316,16.174-8.383L32.708,46.323z"/>
	</g>
</g>
<g>
	<g>
		<path fill="#FFFFFF" d="M58.745,44.771c0.467-1.093,0.26-2.406-0.632-3.299s-2.206-1.101-3.3-0.633l-0.155-0.155l-6.832,6.831
			L35.242,34.932l-0.092,0.092v-0.067h-8.11l-1.436-5.358h13.718v-0.005c1.638-0.021,2.961-1.352,2.961-2.996
			s-1.323-2.975-2.961-2.996v-0.003h-0.034c-0.002,0-0.003,0-0.005,0s-0.003,0-0.005,0H23.996l-1.874-6.994
			c3.24-0.829,5.64-3.759,5.64-7.258c0-4.142-3.358-7.5-7.5-7.5c-4.143,0-7.5,3.358-7.5,7.5c0,2.344,1.077,4.436,2.762,5.812
			l3.799,14.179v0.261h0.07l1.93,7.203v4.155h11.459l10.801,10.802h0L47.825,56l4.243-4.242h0l6.832-6.832L58.745,44.771z"/>
	</g>
</g>
<path fill="#FFFFFF" d="M57.587,23.353c-0.254,0.56-0.62,1.034-1.1,1.42c-0.48,0.387-1.061,0.68-1.74,0.88s-1.447,0.3-2.3,0.3h-1.46
	v4.88h-3.72v-13.96h4.419c2.174,0,3.764,0.37,4.771,1.11c1.007,0.74,1.51,1.896,1.51,3.47
	C57.967,22.159,57.841,22.792,57.587,23.353z M54.057,20.473c-0.126-0.24-0.296-0.43-0.51-0.57c-0.214-0.14-0.464-0.24-0.75-0.3
	s-0.59-0.09-0.91-0.09h-0.899v3.8h0.92c0.746,0,1.323-0.15,1.729-0.45c0.407-0.3,0.61-0.79,0.61-1.47
	C54.248,21.019,54.184,20.712,54.057,20.473z"/>
<path fill="#FFFFFF" d="M66.328,30.833c-0.014-0.307-0.03-0.586-0.051-0.84c-0.02-0.254-0.029-0.52-0.029-0.8h-0.04
	c-0.44,0.68-0.921,1.163-1.44,1.45c-0.52,0.286-1.14,0.429-1.859,0.429c-0.494,0-0.974-0.063-1.44-0.19
	c-0.467-0.126-0.884-0.319-1.25-0.579c-0.367-0.261-0.66-0.598-0.88-1.011c-0.221-0.413-0.33-0.913-0.33-1.5
	c0-0.8,0.193-1.437,0.58-1.91c0.387-0.473,0.856-0.83,1.41-1.069c0.553-0.24,1.14-0.397,1.76-0.471c0.62-0.073,1.163-0.11,1.63-0.11
	c0.307,0,0.597,0.013,0.87,0.04s0.543,0.06,0.81,0.1c-0.013-0.6-0.206-1.05-0.58-1.35c-0.373-0.3-0.979-0.45-1.819-0.45
	c-0.587,0-1.154,0.06-1.7,0.18c-0.547,0.12-1.08,0.32-1.601,0.6l-0.06-2.44c0.76-0.307,1.477-0.507,2.15-0.6
	c0.673-0.094,1.35-0.141,2.03-0.141c0.666,0,1.299,0.077,1.899,0.23c0.6,0.153,1.123,0.403,1.569,0.75
	c0.447,0.347,0.804,0.793,1.07,1.34s0.4,1.207,0.4,1.979v4.08c0,0.12,0.003,0.276,0.01,0.47s0.021,0.395,0.04,0.601
	c0.021,0.207,0.04,0.417,0.06,0.63c0.021,0.214,0.051,0.406,0.091,0.58H66.328z M65.297,26.172c-0.287-0.013-0.523-0.02-0.71-0.02
	c-0.76,0-1.32,0.12-1.68,0.36c-0.36,0.24-0.541,0.573-0.541,1c0,0.374,0.141,0.66,0.42,0.86c0.28,0.2,0.641,0.3,1.08,0.3
	c0.334,0,0.637-0.073,0.91-0.22s0.507-0.337,0.7-0.57s0.34-0.496,0.44-0.79c0.1-0.293,0.149-0.586,0.149-0.88
	C65.84,26.199,65.583,26.186,65.297,26.172z"/>
<path fill="#FFFFFF" d="M79.167,23.292c-0.147-0.053-0.33-0.087-0.551-0.1c-0.22-0.014-0.457-0.021-0.71-0.021
	c-0.44,0-0.823,0.087-1.149,0.26c-0.327,0.173-0.598,0.403-0.811,0.69s-0.37,0.623-0.47,1.01c-0.101,0.387-0.15,0.793-0.15,1.22
	v4.48h-3.6v-10.42h3.28v1.92h0.039c0.334-0.72,0.744-1.26,1.23-1.62c0.486-0.359,1.104-0.54,1.85-0.54
	c0.146,0,0.334,0.01,0.561,0.03s0.446,0.05,0.66,0.09L79.167,23.292z"/>
<path fill="#FFFFFF" d="M87.127,30.833l-2.881-5.16h-0.039v5.16h-3.6v-15h3.6v8.96h0.039l3-4.38h3.941l-3.621,4.78l3.92,5.64H87.127
	z"/>
<path fill="#FFFFFF" d="M93.246,18.712v-2.64h3.6v2.64H93.246z M93.246,30.833v-10.42h3.6v10.42H93.246z"/>
<path fill="#FFFFFF" d="M107.006,30.833v-5c0-0.88-0.129-1.543-0.389-1.99c-0.262-0.446-0.684-0.67-1.271-0.67
	c-0.707,0-1.256,0.25-1.65,0.75c-0.393,0.5-0.59,1.33-0.59,2.49v4.42h-3.6v-10.42h3.281v1.92h0.039
	c0.359-0.733,0.869-1.276,1.529-1.63s1.418-0.53,2.271-0.53c0.705,0,1.313,0.117,1.82,0.351c0.506,0.233,0.92,0.54,1.238,0.92
	c0.32,0.38,0.555,0.816,0.701,1.31s0.219,1.007,0.219,1.54v6.54H107.006z"/>
<path fill="#FFFFFF" d="M123.486,32.342c-0.268,0.727-0.666,1.307-1.199,1.74c-0.535,0.434-1.195,0.74-1.98,0.92
	c-0.787,0.18-1.701,0.27-2.74,0.27c-0.654,0-1.326-0.057-2.02-0.17s-1.334-0.275-1.92-0.488l0.18-2.842
	c0.627,0.307,1.207,0.527,1.74,0.66c0.533,0.135,1.113,0.201,1.74,0.201c0.453,0,0.879-0.051,1.279-0.15s0.742-0.268,1.029-0.5
	c0.287-0.234,0.514-0.543,0.68-0.93c0.168-0.387,0.25-0.867,0.25-1.44v-0.561h-0.039c-0.439,0.641-0.963,1.097-1.57,1.37
	s-1.25,0.41-1.93,0.41s-1.303-0.12-1.871-0.359c-0.566-0.24-1.053-0.587-1.459-1.041c-0.406-0.453-0.727-1.006-0.961-1.66
	c-0.232-0.653-0.35-1.393-0.35-2.22c0-0.813,0.104-1.553,0.311-2.22c0.207-0.667,0.506-1.233,0.9-1.7
	c0.393-0.466,0.879-0.826,1.459-1.08s1.25-0.38,2.01-0.38s1.443,0.184,2.051,0.55s1.109,0.89,1.51,1.57h0.041v-1.88h3.26v9.2
	C123.887,30.706,123.752,31.615,123.486,32.342z M119.775,23.613c-0.42-0.453-0.969-0.68-1.648-0.68c-0.627,0-1.127,0.233-1.5,0.7
	c-0.375,0.467-0.561,1.101-0.561,1.9c0,0.76,0.189,1.373,0.57,1.84c0.379,0.467,0.883,0.7,1.51,0.7c0.32,0,0.619-0.066,0.9-0.2
	c0.279-0.133,0.52-0.32,0.719-0.56c0.201-0.24,0.357-0.523,0.471-0.851c0.113-0.326,0.17-0.683,0.17-1.07
	C120.406,24.659,120.195,24.066,119.775,23.613z"/>
<path fill="#FFFFFF" d="M56.348,10.29c-0.266,0.621-0.646,1.132-1.141,1.533s-1.102,0.697-1.82,0.889
	c-0.718,0.191-1.526,0.287-2.422,0.287h-3.556V3.227h3.584c0.877,0,1.67,0.08,2.38,0.238c0.709,0.159,1.313,0.427,1.813,0.805
	s0.884,0.877,1.155,1.498c0.271,0.621,0.406,1.388,0.406,2.303C56.747,8.93,56.614,9.669,56.348,10.29z M53.73,6.559
	c-0.219-0.392-0.485-0.693-0.798-0.903c-0.313-0.21-0.642-0.346-0.987-0.406s-0.644-0.091-0.896-0.091h-1.036v5.908h1.05
	c0.317,0,0.653-0.04,1.008-0.119c0.354-0.08,0.679-0.227,0.973-0.441c0.294-0.214,0.537-0.513,0.728-0.896
	c0.191-0.383,0.287-0.877,0.287-1.484C54.059,7.474,53.949,6.951,53.73,6.559z"/>
<path fill="#FFFFFF" d="M58.469,4.507V2.659h2.521v1.848H58.469z M58.469,12.991V5.697h2.521v7.294H58.469z"/>
<path fill="#FFFFFF" d="M68.312,11.949c-0.205,0.317-0.472,0.567-0.798,0.749c-0.327,0.182-0.69,0.306-1.093,0.371
	c-0.4,0.065-0.798,0.098-1.189,0.098c-0.588,0-1.095-0.03-1.52-0.091c-0.424-0.061-0.805-0.147-1.141-0.259l0.141-1.834
	c0.447,0.187,0.867,0.317,1.26,0.392c0.392,0.075,0.756,0.112,1.092,0.112c0.438,0,0.721-0.059,0.847-0.175s0.189-0.254,0.189-0.413
	c0-0.205-0.089-0.361-0.267-0.469c-0.177-0.107-0.398-0.198-0.665-0.273c-0.266-0.075-0.553-0.152-0.86-0.231
	c-0.309-0.079-0.596-0.196-0.861-0.35c-0.266-0.154-0.487-0.359-0.665-0.616c-0.177-0.256-0.266-0.604-0.266-1.043
	c0-0.392,0.084-0.737,0.252-1.036c0.168-0.298,0.395-0.546,0.679-0.742c0.285-0.196,0.618-0.345,1.001-0.448
	c0.383-0.103,0.794-0.154,1.232-0.154c0.42,0,0.854,0.033,1.302,0.098c0.448,0.065,0.85,0.173,1.204,0.322l-0.196,1.75
	c-0.326-0.187-0.672-0.315-1.036-0.385c-0.364-0.07-0.677-0.105-0.938-0.105c-0.327,0-0.6,0.04-0.819,0.119
	c-0.219,0.08-0.329,0.208-0.329,0.385c0,0.187,0.094,0.327,0.28,0.42s0.418,0.175,0.693,0.245c0.275,0.07,0.576,0.145,0.902,0.224
	c0.327,0.08,0.628,0.199,0.903,0.357c0.275,0.159,0.506,0.378,0.692,0.658c0.188,0.28,0.28,0.649,0.28,1.106
	C68.619,11.226,68.517,11.632,68.312,11.949z"/>
<path fill="#FFFFFF" d="M74.625,12.999c-0.009-0.215-0.021-0.411-0.034-0.588c-0.015-0.177-0.021-0.364-0.021-0.56h-0.028
	c-0.308,0.476-0.644,0.814-1.008,1.015c-0.364,0.2-0.798,0.301-1.302,0.301c-0.346,0-0.682-0.044-1.008-0.133
	c-0.327-0.089-0.619-0.224-0.875-0.406c-0.257-0.182-0.462-0.417-0.616-0.707c-0.154-0.289-0.231-0.639-0.231-1.05
	c0-0.56,0.136-1.006,0.406-1.337c0.271-0.332,0.6-0.581,0.987-0.749c0.387-0.168,0.798-0.278,1.231-0.329
	c0.435-0.051,0.814-0.077,1.142-0.077c0.214,0,0.417,0.01,0.608,0.028s0.381,0.042,0.567,0.07c-0.009-0.42-0.145-0.735-0.406-0.945
	c-0.261-0.21-0.686-0.315-1.273-0.315c-0.411,0-0.808,0.042-1.19,0.126s-0.756,0.224-1.12,0.42l-0.042-1.708
	c0.532-0.215,1.034-0.355,1.505-0.42c0.472-0.065,0.945-0.098,1.421-0.098c0.467,0,0.91,0.054,1.33,0.161s0.787,0.282,1.1,0.525
	s0.563,0.555,0.749,0.938s0.28,0.845,0.28,1.386v2.856c0,0.084,0.002,0.193,0.007,0.329c0.004,0.135,0.014,0.275,0.027,0.42
	c0.015,0.145,0.028,0.292,0.042,0.44c0.015,0.149,0.035,0.285,0.063,0.406H74.625z M73.904,9.737c-0.2-0.01-0.366-0.014-0.497-0.014
	c-0.532,0-0.924,0.084-1.176,0.252s-0.378,0.401-0.378,0.7c0,0.262,0.098,0.462,0.294,0.603c0.196,0.14,0.448,0.21,0.756,0.21
	c0.233,0,0.445-0.052,0.637-0.154s0.355-0.235,0.49-0.399c0.136-0.164,0.238-0.348,0.309-0.553c0.069-0.205,0.104-0.411,0.104-0.616
	C74.284,9.756,74.104,9.746,73.904,9.737z"/>
<path fill="#FFFFFF" d="M86.329,10.717c-0.14,0.477-0.35,0.896-0.63,1.26s-0.628,0.653-1.043,0.868
	c-0.415,0.214-0.903,0.322-1.463,0.322c-0.252,0-0.505-0.033-0.757-0.098c-0.252-0.065-0.489-0.159-0.714-0.28
	c-0.224-0.121-0.425-0.273-0.602-0.455c-0.178-0.182-0.317-0.395-0.42-0.637h-0.028v1.302h-2.324v-10.5h2.521v4.144h0.042
	c0.299-0.364,0.644-0.639,1.036-0.826c0.392-0.187,0.882-0.28,1.47-0.28c0.504,0,0.949,0.107,1.337,0.322
	c0.388,0.215,0.714,0.497,0.98,0.847C86,7.056,86.2,7.45,86.336,7.889c0.136,0.438,0.203,0.882,0.203,1.33
	C86.539,9.742,86.469,10.241,86.329,10.717z M83.529,7.994c-0.271-0.35-0.645-0.525-1.12-0.525c-0.457,0-0.828,0.178-1.113,0.532
	c-0.284,0.355-0.427,0.812-0.427,1.372c0,0.271,0.04,0.518,0.119,0.742c0.079,0.224,0.188,0.42,0.329,0.588
	c0.14,0.168,0.303,0.299,0.489,0.392s0.388,0.14,0.603,0.14c0.485,0,0.861-0.184,1.127-0.553s0.398-0.833,0.398-1.393
	C83.935,8.776,83.8,8.344,83.529,7.994z"/>
<path fill="#FFFFFF" d="M88.051,12.999v-10.5h2.52v10.5H88.051z"/>
<path fill="#FFFFFF" d="M94.631,10.087c0.074,0.495,0.289,0.852,0.644,1.071c0.354,0.219,0.858,0.329,1.512,0.329
	c0.317,0,0.672-0.042,1.064-0.126c0.392-0.084,0.774-0.229,1.147-0.435v1.778c-0.401,0.159-0.83,0.275-1.288,0.35
	c-0.457,0.075-0.919,0.112-1.386,0.112c-0.606,0-1.169-0.086-1.687-0.259c-0.519-0.173-0.967-0.422-1.344-0.749
	c-0.379-0.327-0.675-0.726-0.89-1.197c-0.215-0.471-0.322-1.005-0.322-1.603c0-0.569,0.089-1.087,0.267-1.554
	c0.177-0.467,0.434-0.868,0.77-1.204s0.747-0.597,1.232-0.784c0.485-0.187,1.036-0.28,1.652-0.28c0.672,0,1.241,0.112,1.707,0.336
	c0.467,0.224,0.845,0.525,1.135,0.903c0.289,0.378,0.499,0.812,0.63,1.302c0.13,0.49,0.196,1.006,0.196,1.547v0.462H94.631z
	 M97.066,7.56c-0.224-0.285-0.579-0.427-1.063-0.427c-0.448,0-0.784,0.143-1.009,0.427c-0.224,0.285-0.354,0.651-0.392,1.099h2.8
	C97.402,8.211,97.29,7.845,97.066,7.56z"/>
<path fill="#FFFFFF" d="M106.503,12.999v-1.302h-0.027c-0.094,0.224-0.225,0.425-0.393,0.602c-0.168,0.178-0.364,0.332-0.588,0.462
	c-0.224,0.13-0.467,0.231-0.729,0.301c-0.261,0.07-0.527,0.105-0.798,0.105c-0.551,0-1.033-0.105-1.448-0.315
	c-0.416-0.21-0.764-0.497-1.043-0.861c-0.28-0.364-0.49-0.786-0.631-1.267c-0.14-0.481-0.21-0.987-0.21-1.519
	c0-0.448,0.068-0.889,0.203-1.323c0.136-0.434,0.336-0.826,0.603-1.176c0.266-0.35,0.592-0.632,0.979-0.847
	c0.388-0.214,0.838-0.322,1.352-0.322c0.531,0,1.001,0.084,1.407,0.252c0.405,0.168,0.768,0.453,1.084,0.854h0.043V2.499h2.52v10.5
	H106.503z M105.866,7.98c-0.294-0.34-0.66-0.511-1.1-0.511c-0.447,0-0.813,0.166-1.099,0.497c-0.284,0.332-0.427,0.772-0.427,1.323
	c0,0.588,0.138,1.06,0.413,1.414s0.646,0.532,1.112,0.532c0.215,0,0.416-0.049,0.603-0.147c0.187-0.098,0.35-0.231,0.49-0.399
	c0.14-0.168,0.249-0.364,0.329-0.588c0.079-0.224,0.119-0.462,0.119-0.714C106.308,8.79,106.16,8.321,105.866,7.98z"/>
<path fill="#FFFFFF" d="M88.122,42.939c0,0.318-0.051,0.646-0.153,0.986c-0.104,0.342-0.289,0.654-0.561,0.939
	c-0.271,0.283-0.637,0.518-1.1,0.699c-0.461,0.182-1.047,0.273-1.756,0.273c-0.327,0-0.661-0.043-1.002-0.127
	c-0.34-0.084-0.674-0.178-1-0.279l0.14-1.305c0.308,0.131,0.646,0.242,1.015,0.336s0.712,0.141,1.029,0.141
	c0.224,0,0.447-0.033,0.672-0.098c0.224-0.066,0.427-0.164,0.609-0.295c0.182-0.131,0.331-0.293,0.447-0.49
	c0.117-0.195,0.176-0.424,0.176-0.686c0-0.178-0.026-0.346-0.078-0.504c-0.051-0.158-0.145-0.313-0.279-0.461
	c-0.136-0.15-0.322-0.299-0.561-0.449c-0.238-0.148-0.545-0.309-0.918-0.477c-0.346-0.148-0.663-0.309-0.953-0.482
	c-0.289-0.172-0.539-0.365-0.749-0.58s-0.374-0.461-0.49-0.734c-0.117-0.275-0.175-0.6-0.175-0.975c0-0.4,0.074-0.764,0.224-1.092
	c0.149-0.326,0.362-0.605,0.638-0.84c0.275-0.232,0.602-0.41,0.979-0.531s0.8-0.182,1.267-0.182c0.393,0,0.768,0.033,1.127,0.098
	c0.359,0.066,0.689,0.15,0.987,0.252l-0.196,1.291c-0.354-0.15-0.664-0.256-0.931-0.316c-0.266-0.061-0.553-0.09-0.86-0.09
	c-0.551,0-0.98,0.109-1.289,0.328c-0.308,0.221-0.461,0.535-0.461,0.945c0,0.336,0.123,0.623,0.371,0.861
	c0.247,0.238,0.646,0.482,1.197,0.734c0.393,0.188,0.752,0.373,1.079,0.561c0.327,0.186,0.604,0.398,0.833,0.637
	c0.229,0.238,0.406,0.51,0.533,0.818C88.06,42.156,88.122,42.52,88.122,42.939z"/>
<path fill="#FFFFFF" d="M96.686,41.973c0,0.523-0.063,1.018-0.188,1.484c-0.126,0.467-0.315,0.877-0.566,1.232
	c-0.252,0.355-0.571,0.635-0.959,0.84c-0.387,0.205-0.841,0.309-1.363,0.309c-0.606,0-1.098-0.105-1.476-0.314
	c-0.378-0.211-0.674-0.488-0.888-0.834h-0.028v3.914h-1.313V38.525h1.259v1.008h0.027c0.205-0.309,0.516-0.58,0.93-0.816
	c0.415-0.238,0.902-0.355,1.461-0.355c0.514,0,0.965,0.096,1.356,0.287s0.716,0.449,0.972,0.777c0.257,0.326,0.45,0.709,0.58,1.146
	C96.62,41.012,96.686,41.479,96.686,41.973z M95.287,42.057c0-0.822-0.173-1.465-0.518-1.934c-0.345-0.467-0.825-0.699-1.44-0.699
	c-0.383,0-0.707,0.084-0.973,0.252s-0.482,0.381-0.65,0.637c-0.168,0.258-0.291,0.545-0.37,0.861
	c-0.079,0.318-0.119,0.627-0.119,0.926c0,0.309,0.042,0.621,0.126,0.938c0.084,0.318,0.21,0.605,0.378,0.861
	c0.167,0.258,0.384,0.469,0.65,0.631c0.266,0.164,0.58,0.246,0.944,0.246c0.289,0,0.555-0.068,0.797-0.203
	c0.242-0.137,0.449-0.324,0.622-0.568c0.173-0.242,0.308-0.529,0.406-0.861C95.238,42.811,95.287,42.449,95.287,42.057z"/>
<path fill="#FFFFFF" d="M102.837,45.666v-0.924h-0.027c-0.094,0.131-0.208,0.262-0.343,0.391c-0.136,0.131-0.297,0.248-0.483,0.352
	c-0.187,0.102-0.396,0.186-0.63,0.254c-0.233,0.066-0.489,0.1-0.77,0.1c-0.326,0-0.644-0.035-0.951-0.105s-0.586-0.189-0.833-0.357
	s-0.445-0.395-0.595-0.678c-0.149-0.285-0.224-0.643-0.224-1.072c0-0.467,0.112-0.852,0.336-1.154
	c0.225-0.303,0.504-0.547,0.84-0.729s0.7-0.309,1.093-0.377c0.392-0.07,0.751-0.105,1.078-0.105c0.383,0,0.672,0.002,0.868,0.006
	c0.195,0.006,0.363,0.012,0.504,0.021c-0.01-0.215-0.028-0.432-0.056-0.652c-0.028-0.219-0.101-0.42-0.218-0.602
	c-0.116-0.182-0.291-0.33-0.524-0.441s-0.556-0.168-0.966-0.168c-0.477,0-0.895,0.082-1.254,0.244
	c-0.359,0.164-0.632,0.324-0.818,0.484l-0.07-1.121c0.121-0.064,0.259-0.137,0.413-0.217c0.154-0.078,0.329-0.152,0.525-0.223
	c0.195-0.07,0.415-0.125,0.657-0.168c0.243-0.041,0.514-0.063,0.813-0.063c0.541,0,0.991,0.072,1.351,0.217
	c0.358,0.145,0.646,0.348,0.859,0.609c0.214,0.26,0.368,0.572,0.461,0.938c0.093,0.363,0.14,0.764,0.14,1.203v2.799
	c0,0.168,0,0.387,0,0.656c0,0.271,0.019,0.564,0.056,0.883H102.837z M102.7,42.264c-0.131,0-0.278-0.004-0.441-0.014
	s-0.315-0.014-0.455-0.014c-0.336,0-0.651,0.025-0.945,0.076c-0.295,0.053-0.552,0.135-0.771,0.246
	c-0.219,0.111-0.392,0.254-0.518,0.428c-0.127,0.174-0.189,0.377-0.189,0.609c0,0.17,0.037,0.326,0.112,0.471
	c0.074,0.145,0.173,0.271,0.294,0.379s0.262,0.189,0.42,0.246c0.159,0.055,0.327,0.084,0.505,0.084c0.392,0,0.717-0.064,0.974-0.189
	c0.257-0.127,0.46-0.283,0.609-0.471s0.254-0.385,0.315-0.596c0.061-0.211,0.091-0.4,0.091-0.568V42.264z"/>
<path fill="#FFFFFF" d="M110.141,45.775c-0.289,0.041-0.573,0.063-0.854,0.063c-0.522,0-1.006-0.096-1.449-0.287
	s-0.828-0.455-1.154-0.791c-0.327-0.336-0.581-0.732-0.763-1.191c-0.182-0.457-0.272-0.947-0.272-1.469c0-0.514,0.081-1,0.245-1.457
	c0.163-0.457,0.4-0.854,0.713-1.189s0.697-0.602,1.154-0.799c0.457-0.195,0.976-0.293,1.554-0.293c0.243,0,0.505,0.025,0.784,0.076
	c0.28,0.051,0.541,0.119,0.784,0.203l-0.112,1.09c-0.504-0.205-0.975-0.307-1.414-0.307c-0.354,0-0.674,0.072-0.959,0.217
	c-0.284,0.145-0.527,0.338-0.728,0.582c-0.201,0.242-0.354,0.525-0.462,0.848s-0.161,0.66-0.161,1.016
	c0,0.279,0.04,0.578,0.119,0.896c0.079,0.316,0.212,0.609,0.398,0.875s0.43,0.486,0.729,0.658c0.299,0.174,0.672,0.26,1.12,0.26
	c0.289,0,0.543-0.037,0.763-0.113c0.22-0.074,0.441-0.168,0.665-0.279l0.098,1.16C110.696,45.656,110.431,45.732,110.141,45.775z"/>
<path fill="#FFFFFF" d="M113.38,42.385c0,0.355,0.063,0.68,0.189,0.971c0.125,0.289,0.296,0.541,0.511,0.752
	s0.464,0.375,0.749,0.492c0.284,0.117,0.59,0.176,0.917,0.176c0.224,0,0.445-0.023,0.665-0.07c0.219-0.047,0.427-0.107,0.623-0.182
	c0.195-0.074,0.371-0.152,0.524-0.232c0.154-0.078,0.278-0.156,0.371-0.23v1.301c-0.28,0.131-0.602,0.242-0.966,0.336
	s-0.798,0.141-1.302,0.141c-0.561,0-1.066-0.08-1.52-0.238c-0.452-0.158-0.84-0.396-1.161-0.715
	c-0.322-0.316-0.568-0.719-0.741-1.203c-0.173-0.486-0.259-1.051-0.259-1.695c0-0.551,0.082-1.049,0.245-1.498
	c0.163-0.447,0.394-0.828,0.692-1.141s0.652-0.555,1.063-0.729c0.41-0.172,0.867-0.258,1.371-0.258c0.578,0,1.065,0.1,1.462,0.301
	c0.396,0.199,0.719,0.479,0.966,0.838c0.247,0.357,0.424,0.783,0.531,1.277s0.161,1.029,0.161,1.607H113.38z M116.97,40.688
	c-0.069-0.236-0.18-0.449-0.328-0.635c-0.149-0.188-0.334-0.338-0.553-0.455c-0.22-0.115-0.483-0.174-0.791-0.174
	c-0.383,0-0.695,0.078-0.938,0.236c-0.242,0.16-0.434,0.348-0.573,0.566c-0.141,0.219-0.24,0.441-0.301,0.664
	c-0.062,0.225-0.096,0.396-0.105,0.518h3.695C117.075,41.166,117.04,40.926,116.97,40.688z"/>
<path fill="#FFFFFF" d="M124.085,43.611c0,0.391-0.072,0.729-0.217,1.008s-0.333,0.512-0.566,0.693s-0.501,0.314-0.805,0.398
	c-0.303,0.084-0.613,0.127-0.931,0.127c-0.354,0-0.684-0.025-0.987-0.078c-0.303-0.051-0.618-0.156-0.944-0.314l0.069-1.174
	c0.196,0.121,0.446,0.234,0.749,0.342c0.304,0.107,0.604,0.162,0.903,0.162c0.383,0,0.7-0.086,0.952-0.26
	c0.252-0.172,0.378-0.422,0.378-0.748c0-0.131-0.025-0.248-0.077-0.352c-0.051-0.102-0.133-0.203-0.245-0.301
	c-0.111-0.098-0.261-0.197-0.447-0.301c-0.188-0.104-0.416-0.219-0.687-0.35c-0.196-0.094-0.392-0.197-0.588-0.309
	s-0.371-0.242-0.524-0.393c-0.154-0.148-0.28-0.324-0.379-0.525c-0.098-0.199-0.146-0.436-0.146-0.707
	c0-0.672,0.224-1.201,0.671-1.59c0.448-0.387,1.082-0.58,1.903-0.58c0.243,0,0.504,0.027,0.784,0.084
	c0.28,0.055,0.546,0.121,0.798,0.195l-0.111,1.146c-0.104-0.055-0.218-0.105-0.344-0.146c-0.126-0.043-0.254-0.08-0.385-0.111
	c-0.131-0.033-0.254-0.059-0.371-0.078c-0.116-0.018-0.217-0.027-0.301-0.027c-0.354,0-0.651,0.074-0.889,0.225
	c-0.238,0.148-0.357,0.359-0.357,0.629c0,0.299,0.112,0.535,0.336,0.707c0.224,0.174,0.546,0.354,0.966,0.539
	c0.289,0.131,0.544,0.262,0.763,0.393c0.22,0.131,0.406,0.275,0.561,0.434c0.153,0.16,0.271,0.342,0.35,0.547
	S124.085,43.34,124.085,43.611z"/>
<path fill="#9B6800" d="M82.102,56v-2.393h-1.76V56h-1.488v-5.584h1.488v2.137h1.76v-2.137h1.488V56H82.102z"/>
<path fill="#9B6800" d="M89.025,54.828c-0.12,0.27-0.288,0.498-0.504,0.688c-0.217,0.189-0.473,0.334-0.768,0.432
	c-0.297,0.1-0.621,0.148-0.973,0.148s-0.676-0.049-0.972-0.148c-0.296-0.098-0.552-0.242-0.769-0.432
	c-0.216-0.189-0.384-0.418-0.504-0.688c-0.119-0.27-0.18-0.572-0.18-0.908c0-0.342,0.061-0.646,0.18-0.916
	c0.12-0.27,0.288-0.498,0.504-0.688c0.217-0.189,0.473-0.334,0.769-0.432c0.296-0.1,0.62-0.148,0.972-0.148s0.676,0.049,0.973,0.148
	c0.295,0.098,0.551,0.242,0.768,0.432c0.216,0.189,0.384,0.418,0.504,0.688s0.18,0.574,0.18,0.916
	C89.205,54.256,89.146,54.559,89.025,54.828z M87.478,53.064c-0.16-0.214-0.392-0.32-0.696-0.32c-0.304,0-0.536,0.106-0.695,0.32
	c-0.16,0.213-0.24,0.496-0.24,0.848c0,0.373,0.084,0.662,0.252,0.867c0.168,0.206,0.396,0.309,0.684,0.309s0.516-0.103,0.684-0.309
	c0.168-0.205,0.252-0.494,0.252-0.867C87.717,53.561,87.637,53.277,87.478,53.064z"/>
<path fill="#9B6800" d="M92.901,56v-2c0-0.352-0.052-0.617-0.156-0.796s-0.273-0.269-0.508-0.269c-0.282,0-0.503,0.101-0.66,0.301
	c-0.157,0.199-0.236,0.531-0.236,0.996V56h-1.439v-4.168h1.312V52.6h0.016c0.145-0.293,0.349-0.51,0.612-0.652
	c0.265-0.141,0.567-0.211,0.908-0.211c0.282,0,0.525,0.047,0.728,0.14c0.203,0.093,0.369,0.216,0.496,0.368
	c0.129,0.152,0.222,0.326,0.28,0.523s0.088,0.402,0.088,0.617V56H92.901z"/>
<path fill="#9B6800" d="M99.493,56.604c-0.106,0.291-0.267,0.523-0.479,0.697c-0.214,0.172-0.479,0.295-0.793,0.367
	s-0.68,0.107-1.096,0.107c-0.262,0-0.531-0.021-0.809-0.067s-0.533-0.11-0.768-0.196l0.072-1.136c0.25,0.122,0.482,0.21,0.695,0.265
	c0.214,0.053,0.445,0.08,0.697,0.08c0.181,0,0.352-0.021,0.512-0.061c0.16-0.041,0.297-0.107,0.412-0.2
	c0.114-0.093,0.205-0.218,0.271-0.372s0.1-0.347,0.1-0.576v-0.224h-0.016c-0.176,0.256-0.385,0.438-0.628,0.548S97.165,56,96.893,56
	c-0.271,0-0.521-0.048-0.748-0.145c-0.227-0.096-0.421-0.234-0.584-0.416c-0.162-0.181-0.29-0.402-0.384-0.664
	c-0.093-0.261-0.14-0.557-0.14-0.887c0-0.326,0.041-0.622,0.124-0.889s0.202-0.493,0.36-0.68c0.156-0.188,0.352-0.331,0.584-0.432
	c0.231-0.102,0.5-0.152,0.804-0.152s0.577,0.072,0.819,0.22c0.243,0.147,0.444,0.356,0.604,0.628h0.017v-0.752h1.304v3.68
	C99.653,55.949,99.6,56.313,99.493,56.604z M98.009,53.111c-0.168-0.181-0.388-0.271-0.659-0.271c-0.251,0-0.451,0.094-0.601,0.28
	s-0.224,0.44-0.224,0.76c0,0.304,0.076,0.55,0.228,0.736c0.152,0.187,0.354,0.28,0.604,0.28c0.127,0,0.248-0.027,0.359-0.08
	c0.112-0.054,0.208-0.129,0.288-0.225s0.143-0.209,0.188-0.34c0.045-0.131,0.068-0.273,0.068-0.428
	C98.262,53.531,98.177,53.293,98.009,53.111z"/>
<path fill="#9B6800" d="M106.341,56l-1.735-2.536h-0.017V56h-1.487v-5.584h1.487v2.279h0.017l1.68-2.279h1.792l-2.063,2.6
	L108.237,56H106.341z"/>
<path fill="#9B6800" d="M113.273,54.828c-0.12,0.27-0.288,0.498-0.504,0.688c-0.217,0.189-0.473,0.334-0.768,0.432
	c-0.297,0.1-0.621,0.148-0.973,0.148s-0.676-0.049-0.972-0.148c-0.296-0.098-0.552-0.242-0.769-0.432
	c-0.216-0.189-0.384-0.418-0.504-0.688c-0.119-0.27-0.18-0.572-0.18-0.908c0-0.342,0.061-0.646,0.18-0.916
	c0.12-0.27,0.288-0.498,0.504-0.688c0.217-0.189,0.473-0.334,0.769-0.432c0.296-0.1,0.62-0.148,0.972-0.148s0.676,0.049,0.973,0.148
	c0.295,0.098,0.551,0.242,0.768,0.432c0.216,0.189,0.384,0.418,0.504,0.688s0.18,0.574,0.18,0.916
	C113.453,54.256,113.394,54.559,113.273,54.828z M111.726,53.064c-0.16-0.214-0.392-0.32-0.696-0.32
	c-0.304,0-0.536,0.106-0.695,0.32c-0.16,0.213-0.24,0.496-0.24,0.848c0,0.373,0.084,0.662,0.252,0.867
	c0.168,0.206,0.396,0.309,0.684,0.309s0.516-0.103,0.684-0.309c0.168-0.205,0.252-0.494,0.252-0.867
	C111.965,53.561,111.885,53.277,111.726,53.064z"/>
<path fill="#9B6800" d="M117.149,56v-2c0-0.352-0.052-0.617-0.156-0.796s-0.273-0.269-0.508-0.269c-0.282,0-0.503,0.101-0.66,0.301
	c-0.157,0.199-0.236,0.531-0.236,0.996V56h-1.439v-4.168h1.312V52.6h0.016c0.145-0.293,0.349-0.51,0.612-0.652
	c0.265-0.141,0.567-0.211,0.908-0.211c0.282,0,0.525,0.047,0.728,0.14c0.203,0.093,0.369,0.216,0.496,0.368
	c0.129,0.152,0.222,0.326,0.28,0.523s0.088,0.402,0.088,0.617V56H117.149z"/>
<path fill="#9B6800" d="M123.741,56.604c-0.106,0.291-0.267,0.523-0.479,0.697c-0.214,0.172-0.479,0.295-0.793,0.367
	s-0.68,0.107-1.096,0.107c-0.262,0-0.531-0.021-0.809-0.067s-0.533-0.11-0.768-0.196l0.072-1.136c0.25,0.122,0.482,0.21,0.695,0.265
	c0.214,0.053,0.445,0.08,0.697,0.08c0.181,0,0.352-0.021,0.512-0.061c0.16-0.041,0.297-0.107,0.412-0.2
	c0.114-0.093,0.205-0.218,0.271-0.372s0.1-0.347,0.1-0.576v-0.224h-0.016c-0.176,0.256-0.385,0.438-0.628,0.548
	S121.413,56,121.141,56c-0.271,0-0.521-0.048-0.748-0.145c-0.227-0.096-0.421-0.234-0.584-0.416
	c-0.162-0.181-0.29-0.402-0.384-0.664c-0.093-0.261-0.14-0.557-0.14-0.887c0-0.326,0.041-0.622,0.124-0.889s0.202-0.493,0.36-0.68
	c0.156-0.188,0.352-0.331,0.584-0.432c0.231-0.102,0.5-0.152,0.804-0.152s0.577,0.072,0.819,0.22
	c0.243,0.147,0.444,0.356,0.604,0.628h0.017v-0.752h1.304v3.68C123.901,55.949,123.848,56.313,123.741,56.604z M122.257,53.111
	c-0.168-0.181-0.388-0.271-0.659-0.271c-0.251,0-0.451,0.094-0.601,0.28s-0.224,0.44-0.224,0.76c0,0.304,0.076,0.55,0.228,0.736
	c0.152,0.187,0.354,0.28,0.604,0.28c0.127,0,0.248-0.027,0.359-0.08c0.112-0.054,0.208-0.129,0.288-0.225s0.143-0.209,0.188-0.34
	c0.045-0.131,0.068-0.273,0.068-0.428C122.51,53.531,122.425,53.293,122.257,53.111z"/>
<text transform="matrix(1 0 0 1 37.1675 32.832)" display="none" fill="#9B6800" font-family="'ArticulateExtrabold'" font-size="20">Parking</text>
<text transform="matrix(1 0 0 1 37.499 14.999)" display="none" fill="#FFFFFF" font-family="'ArticulateExtrabold'" font-size="14">Disabled </text>
<text transform="matrix(1 0 0 1 69.999 45.666)" display="none"><tspan x="0" y="0" display="inline" fill="#FFFFFF" font-family="'Articulate'" font-size="10"> </tspan><tspan x="2.78" y="0" display="inline" fill="#FFFFFF" font-family="'Articulate'" font-size="14">Spaces</tspan><tspan x="45.563" y="0" display="inline" fill="#FFFFFF" font-family="'Articulate'" font-size="12"> </tspan></text>
<text transform="matrix(1 0 0 1 69.3335 54)" display="none" fill="#9B6800" font-family="'ArticulateExtrabold'" font-size="8">Hong Kong</text>
</svg>
