<?xml version="1.0" encoding="utf-8"?>
<!-- Generator: Adobe Illustrator 12.0.0, SVG Export Plug-In  -->
<!DOCTYPE svg PUBLIC "-//W3C//DTD SVG 1.1//EN" "http://www.w3.org/Graphics/SVG/1.1/DTD/svg11.dtd" [
	<!ENTITY ns_flows "http://ns.adobe.com/Flows/1.0/">
	<!ENTITY ns_svg "http://www.w3.org/2000/svg">
	<!ENTITY ns_xlink "http://www.w3.org/1999/xlink">
]>
<svg  version="1.1" xmlns="&ns_svg;" xmlns:xlink="&ns_xlink;" xmlns:a="http://ns.adobe.com/AdobeSVGViewerExtensions/3.0/"
	 width="29" height="26" viewBox="0 -0.045 29 26" enable-background="new 0 -0.045 29 26" xml:space="preserve">
<defs>
</defs>
<path fill="#FFFFFF" d="M28.057,12.708c0,1.382-1.162,2.5-2.596,2.5H2.598C1.163,15.208,0,14.09,0,12.708l0,0
	c0-1.384,1.163-2.506,2.598-2.506h22.863C26.895,10.201,28.057,11.324,28.057,12.708L28.057,12.708z"/>
<path fill="#FFFFFF" d="M27.819,10.917c0.978,0.978,1.207,2.33,0.513,3.024L17.266,25.008c-0.694,0.694-2.048,0.466-3.026-0.512l0,0
	c-0.978-0.979-1.209-2.335-0.515-3.029L24.792,10.4C25.486,9.706,26.841,9.938,27.819,10.917L27.819,10.917z"/>
<path fill="#FFFFFF" d="M27.817,14.495c-0.979,0.978-2.33,1.207-3.025,0.513L13.725,3.942c-0.694-0.694-0.466-2.048,0.512-3.026l0,0
	c0.979-0.978,2.335-1.209,3.029-0.515l11.067,11.067C29.027,12.162,28.794,13.517,27.817,14.495L27.817,14.495z"/>
</svg>
