<?xml version="1.0" encoding="utf-8"?>
<!-- Generator: Adobe Illustrator 12.0.0, SVG Export Plug-In  -->
<!DOCTYPE svg PUBLIC "-//W3C//DTD SVG 1.1//EN" "http://www.w3.org/Graphics/SVG/1.1/DTD/svg11.dtd" [
	<!ENTITY ns_flows "http://ns.adobe.com/Flows/1.0/">
	<!ENTITY ns_svg "http://www.w3.org/2000/svg">
	<!ENTITY ns_xlink "http://www.w3.org/1999/xlink">
]>
<svg  version="1.1" xmlns="&ns_svg;" xmlns:xlink="&ns_xlink;" xmlns:a="http://ns.adobe.com/AdobeSVGViewerExtensions/3.0/"
	 width="18" height="18" viewBox="10.2 3.765 18 18" enable-background="new 10.2 3.765 18 18" xml:space="preserve">
<defs>
</defs>
<path display="none" fill="none" stroke="#FFFFFF" stroke-width="2" d="M15.704,12.028c0,2.029-1.646,3.676-3.677,3.676H4.676
	C2.646,15.704,1,14.057,1,12.028V4.676C1,2.646,2.646,1,4.676,1h7.351c2.03,0,3.677,1.646,3.677,3.676V12.028z"/>
<circle fill="none" stroke="#FFFFFF" stroke-width="2" cx="19.177" cy="12.555" r="7.5"/>
<path fill="#FFFFFF" stroke="#FFFFFF" d="M15.177,17.133l2.815-4.615h-0.002l-2.669-4.542h2.196l1.729,3.181h0.004l1.759-3.181
	h2.167l-2.753,4.579l2.753,4.578H20.96l-1.789-3.181h-0.002l-1.796,3.181H15.177z"/>
</svg>
