<?xml version="1.0" encoding="utf-8"?>
<!-- Generator: Adobe Illustrator 12.0.0, SVG Export Plug-In  -->
<!DOCTYPE svg PUBLIC "-//W3C//DTD SVG 1.1//EN" "http://www.w3.org/Graphics/SVG/1.1/DTD/svg11.dtd" [
	<!ENTITY ns_flows "http://ns.adobe.com/Flows/1.0/">
	<!ENTITY ns_svg "http://www.w3.org/2000/svg">
	<!ENTITY ns_xlink "http://www.w3.org/1999/xlink">
]>
<svg  version="1.1" xmlns="&ns_svg;" xmlns:xlink="&ns_xlink;" xmlns:a="http://ns.adobe.com/AdobeSVGViewerExtensions/3.0/"
	 width="40" height="40" viewBox="20.12 11.681 40 40" enable-background="new 20.12 11.681 40 40" xml:space="preserve">
<defs>
</defs>
<circle display="none" fill="#48B4E8" stroke="#FFFFFF" stroke-width="3" cx="26.119" cy="29.682" r="18"/>
<path display="none" fill="#FFFFFF" d="M27.098,45.026c-0.539,0.539-1.42,0.539-1.958,0L10.773,30.66
	c-0.539-0.539-0.539-1.421,0-1.959L25.14,14.335c0.538-0.539,1.419-0.539,1.958,0l14.367,14.366c0.538,0.538,0.538,1.42,0,1.959
	L27.098,45.026z"/>
<circle fill="none" stroke="#FFFFFF" stroke-width="3" cx="40.19" cy="31.268" r="18"/>
<path fill="#FFFFFF" d="M33.502,27.329v2.672h3.688v1.734h-3.688v3.422h5.188v1.813h-7.219V25.517h7.219v1.813H33.502z"/>
<path fill="#FFFFFF" d="M48.088,37.126l-5.563-7.25v7.094h-1.953V25.517h0.984l5.406,6.906v-6.906h1.953v11.609H48.088z"/>
<text transform="matrix(1 0 0 1 56.5493 13.7197)" display="none" fill="#FFFFFF" font-family="'TrebuchetMS-Bold'" font-size="16">EN</text>
<circle display="none" fill="#48B4E8" stroke="#FFFFFF" stroke-width="3" cx="27.87" cy="31.026" r="9"/>
<polygon display="none" fill="#FFFFFF" points="25.406,27.025 32.333,31.025 25.405,35.025 "/>
<ellipse display="none" fill="#FFFFFF" stroke="#48B4E8" stroke-width="2" cx="26.119" cy="34.16" rx="9" ry="3.021"/>
<rect x="21.538" y="28.395" display="none" fill="#FFFFFF" stroke="#FFFFFF" stroke-width="2" width="9.162" height="3.92"/>
<ellipse display="none" fill="#FFFFFF" stroke="#48B4E8" stroke-width="2" cx="26.167" cy="21.377" rx="2.156" ry="2.197"/>
<g display="none">
	<g display="inline">
		<path fill="#FFFFFF" d="M29.67,27.242c0-1.972-1.568-3.569-3.504-3.569c-1.935,0-3.502,1.598-3.502,3.569
			c0,0.094,0.02,0.182,0.027,0.273h-0.027v3.92h1.646v2.89h3.714v-2.89h1.646v-3.92h-0.027C29.65,27.424,29.67,27.336,29.67,27.242z
			"/>
	</g>
	<g display="inline">
		<path fill="none" stroke="#48B4E8" stroke-width="2" d="M29.67,27.242c0-1.972-1.568-3.569-3.504-3.569
			c-1.935,0-3.502,1.598-3.502,3.569c0,0.094,0.02,0.182,0.027,0.273h-0.027v3.92h1.646v2.89h3.714v-2.89h1.646v-3.92h-0.027
			C29.65,27.424,29.67,27.336,29.67,27.242z"/>
	</g>
</g>
<circle display="none" fill="#FFAB00" stroke="#FFFFFF" stroke-width="3" cx="25.5" cy="29.362" r="24"/>
<path display="none" fill="#FFFFFF" d="M26.807,49.822c-0.719,0.719-1.895,0.719-2.612,0L5.04,30.667
	c-0.719-0.718-0.719-1.895,0-2.612L24.194,8.9c0.719-0.718,1.894-0.718,2.612,0l19.156,19.155c0.717,0.718,0.717,1.895,0,2.613
	L26.807,49.822z"/>
<circle display="none" fill="#FFFFFF" stroke="#FFAB00" stroke-width="2" cx="25.5" cy="29.361" r="11.5"/>
<line display="none" fill="none" stroke="#FFAB00" stroke-width="3" x1="25.87" y1="35.431" x2="25.87" y2="45.931"/>
<line display="none" fill="none" stroke="#FFAB00" stroke-width="3" x1="25.87" y1="12.431" x2="25.87" y2="22.931"/>
<line display="none" fill="none" stroke="#FFAB00" stroke-width="3" x1="31.87" y1="29.181" x2="42.37" y2="29.181"/>
<circle display="none" fill="#FFAB00" cx="49.741" cy="17.222" r="8.736"/>
<circle display="none" fill="#FFFFFF" cx="49.741" cy="14.222" r="2.912"/>
<polygon display="none" fill="#FFFFFF" points="57.709,24.38 49.741,39.306 41.774,24.38 "/>
<polygon display="none" fill="#FFAB00" points="57.709,20.741 49.741,35.666 41.774,20.741 "/>
<rect x="19.038" y="22.895" display="none" fill="#FFFFFF" stroke="#FFFFFF" stroke-width="2" width="9.162" height="3.92"/>
<ellipse display="none" fill="#FFFFFF" stroke="#FFFFFF" stroke-width="2" cx="23.667" cy="15.877" rx="2.156" ry="2.197"/>
<g display="none">
	<g display="inline">
		<path fill="#FFFFFF" d="M27.17,21.742c0-1.972-1.568-3.569-3.504-3.569c-1.935,0-3.502,1.598-3.502,3.569
			c0,0.094,0.02,0.182,0.027,0.273h-0.027v3.92h1.645v2.89h3.715v-2.89h1.646v-3.92h-0.027C27.15,21.924,27.17,21.836,27.17,21.742z
			"/>
	</g>
	<g display="inline">
		<path fill="none" stroke="#48B4E8" stroke-width="2" d="M27.17,21.742c0-1.972-1.568-3.569-3.504-3.569
			c-1.935,0-3.502,1.598-3.502,3.569c0,0.094,0.02,0.182,0.027,0.273h-0.027v3.92h1.645v2.89h3.715v-2.89h1.646v-3.92h-0.027
			C27.15,21.924,27.17,21.836,27.17,21.742z"/>
	</g>
</g>
<polygon display="none" fill="#FFAB00" points="46.577,13.908 42.077,21.703 37.577,13.908 "/>
</svg>
