<?xml version="1.0" encoding="utf-8"?>
<!-- Generator: Adobe Illustrator 12.0.0, SVG Export Plug-In  -->
<!DOCTYPE svg PUBLIC "-//W3C//DTD SVG 1.1//EN" "http://www.w3.org/Graphics/SVG/1.1/DTD/svg11.dtd" [
	<!ENTITY ns_flows "http://ns.adobe.com/Flows/1.0/">
	<!ENTITY ns_svg "http://www.w3.org/2000/svg">
	<!ENTITY ns_xlink "http://www.w3.org/1999/xlink">
]>
<svg  version="1.1" xmlns="&ns_svg;" xmlns:xlink="&ns_xlink;" xmlns:a="http://ns.adobe.com/AdobeSVGViewerExtensions/3.0/"
	 width="26" height="26" viewBox="20 20 40 40" enable-background="new 26.12 27.873 26 26" xml:space="preserve">
<defs>
</defs>
<circle display="none" fill="#48B4E8" stroke="#FFFFFF" stroke-width="3" cx="26.119" cy="49.874" r="18"/>
<path display="none" fill="#FFFFFF" d="M27.098,65.219c-0.539,0.539-1.42,0.539-1.958,0L10.773,50.854
	c-0.539-0.539-0.539-1.422,0-1.959L25.14,34.528c0.538-0.539,1.419-0.539,1.958,0l14.367,14.367c0.538,0.537,0.538,1.42,0,1.959
	L27.098,65.219z"/>
<circle display="none" fill="none" stroke="#FFFFFF" stroke-width="3" cx="44.808" cy="53.167" r="18"/>
<path display="none" fill="#FFFFFF" d="M33.502,47.521v2.672h3.688v1.733h-3.688v3.423h5.188v1.813h-7.219V45.709h7.219v1.813
	H33.502L33.502,47.521z"/>
<path display="none" fill="#FFFFFF" d="M48.088,57.318l-5.563-7.25v7.094h-1.953V45.709h0.984l5.406,6.906v-6.906h1.953v11.609
	H48.088z"/>
<path display="none" fill="#FFFFFF" d="M37.917,45.063h1.951l-0.369,0.703h5.941v1.213h-6.627c-0.199,0.224-0.475,0.334-0.826,0.334
	H36.51v-1.336h0.773c0.129,0,0.223-0.069,0.281-0.211L37.917,45.063z M37.706,47.682h7.154v2.18h0.984v1.248H44.86v1.478
	c0,0.563-0.398,0.845-1.195,0.845h-0.158l-2.566,1.071h7.226c0.246,0,0.369-0.101,0.369-0.299v-0.545h1.969v1.036
	c0,0.656-0.491,0.984-1.478,0.984h-4.43l-3.955,1.213h9.369c0.223,0,0.334-0.094,0.334-0.281v-0.772h1.969v1.318
	c0,0.668-0.492,1.002-1.477,1.002h-4.922v2.952h-1.881v-2.952h-7.031v-1.144l3.955-1.336h-3.48v-0.984l2.953-1.266h-2.725v-2.32
	h-1.072v-1.248h1.072V47.682z M39.956,58.703h2.021c-0.353,0.914-0.697,1.488-1.037,1.723c-0.353,0.258-0.756,0.387-1.213,0.387
	h-2.883v-1.405h2.109C39.352,59.406,39.687,59.172,39.956,58.703z M39.323,49.861H40.5l-0.142-0.563h1.688l0.158,0.563h1.055v-1.072
	h-3.938v1.072H39.323z M42.821,52.322c0.293,0,0.438-0.123,0.438-0.369v-0.844h-3.938v1.213h1.283l-0.299-0.703h1.67l0.334,0.703
	H42.821z M46.847,45.063h1.881l-0.299,0.633h4.395v1.283h-5.01l-0.019,0.054c-0.198,0.434-0.539,0.649-1.021,0.649h-1.213v-1.266
	h0.51c0.164,0,0.281-0.105,0.353-0.316L46.847,45.063z M50.415,47.523h1.969l-2.285,2.971l0.598,0.703
	c0.271,0.316,0.574,0.475,0.914,0.475h1.056v1.494h-1.881c-0.293,0-0.539-0.129-0.738-0.387l-0.879-1.055l-0.756,0.967
	c-0.224,0.315-0.463,0.475-0.722,0.475h-1.774v-1.494h1.002c0.151,0,0.306-0.117,0.457-0.352l0.703-0.879l-1.74-2.058h1.986
	l0.737,0.861L50.415,47.523z M47.76,58.703h2.039l0.211,0.439c0.117,0.176,0.328,0.264,0.634,0.264h2.021v1.406H49.87
	c-0.762,0-1.295-0.334-1.6-1.002L47.76,58.703z"/>
<circle display="none" fill="#48B4E8" stroke="#FFFFFF" stroke-width="3" cx="27.87" cy="51.219" r="9"/>
<polygon display="none" fill="#FFFFFF" points="25.406,47.218 32.333,51.218 25.405,55.218 "/>
<ellipse display="none" fill="#FFFFFF" stroke="#48B4E8" stroke-width="2" cx="26.119" cy="54.353" rx="9" ry="3.021"/>
<rect x="21.538" y="48.587" display="none" fill="#FFFFFF" stroke="#FFFFFF" stroke-width="2" width="9.162" height="3.92"/>
<ellipse display="none" fill="#FFFFFF" stroke="#48B4E8" stroke-width="2" cx="26.167" cy="41.569" rx="2.156" ry="2.197"/>
<path display="none" fill="#FFFFFF" d="M29.67,47.436c0-1.973-1.568-3.569-3.504-3.569c-1.935,0-3.502,1.598-3.502,3.569
	c0,0.094,0.02,0.182,0.027,0.272h-0.027v3.92h1.646v2.89h3.714v-2.89h1.646v-3.92h-0.027C29.65,47.616,29.67,47.527,29.67,47.436z"
	/>
<path display="none" fill="none" stroke="#48B4E8" stroke-width="2" d="M29.67,47.436c0-1.973-1.568-3.569-3.504-3.569
	c-1.935,0-3.502,1.598-3.502,3.569c0,0.094,0.02,0.182,0.027,0.272h-0.027v3.92h1.646v2.89h3.714v-2.89h1.646v-3.92h-0.027
	C29.65,47.616,29.67,47.527,29.67,47.436z"/>
<circle display="none" fill="#FFAB00" stroke="#FFFFFF" stroke-width="3" cx="25.5" cy="49.555" r="24"/>
<path display="none" fill="#FFFFFF" d="M26.807,70.016c-0.719,0.719-1.895,0.719-2.612,0L5.04,50.859
	c-0.719-0.719-0.719-1.896,0-2.612l19.154-19.155c0.719-0.718,1.894-0.718,2.612,0l19.156,19.155c0.717,0.718,0.717,1.896,0,2.612
	L26.807,70.016z"/>
<circle display="none" fill="#FFFFFF" stroke="#FFAB00" stroke-width="2" cx="25.5" cy="49.554" r="11.5"/>
<line display="none" fill="none" stroke="#FFAB00" stroke-width="3" x1="25.87" y1="32.623" x2="25.87" y2="43.123"/>
<line display="none" fill="none" stroke="#FFAB00" stroke-width="3" x1="31.87" y1="49.373" x2="42.37" y2="49.373"/>
<circle display="none" fill="#FFAB00" cx="49.741" cy="37.415" r="8.736"/>
<circle display="none" fill="#FFFFFF" cx="49.741" cy="34.415" r="2.912"/>
<polygon display="none" fill="#FFFFFF" points="57.709,44.573 49.741,59.498 41.774,44.573 "/>
<polygon display="none" fill="#FFAB00" points="57.709,40.934 49.741,55.857 41.774,40.934 "/>
<rect x="19.038" y="43.087" display="none" fill="#FFFFFF" stroke="#FFFFFF" stroke-width="2" width="9.162" height="3.92"/>
<ellipse display="none" fill="#FFFFFF" stroke="#FFFFFF" stroke-width="2" cx="23.667" cy="36.069" rx="2.156" ry="2.197"/>
<path display="none" fill="#FFFFFF" d="M27.17,41.936c0-1.973-1.568-3.569-3.504-3.569c-1.935,0-3.502,1.598-3.502,3.569
	c0,0.094,0.02,0.182,0.027,0.272h-0.027v3.92h1.645v2.89h3.715v-2.89h1.646v-3.92h-0.027C27.15,42.116,27.17,42.027,27.17,41.936z"
	/>
<path display="none" fill="none" stroke="#48B4E8" stroke-width="2" d="M27.17,41.936c0-1.973-1.568-3.569-3.504-3.569
	c-1.935,0-3.502,1.598-3.502,3.569c0,0.094,0.02,0.182,0.027,0.272h-0.027v3.92h1.645v2.89h3.715v-2.89h1.646v-3.92h-0.027
	C27.15,42.116,27.17,42.027,27.17,41.936z"/>
<polygon display="none" fill="#FFAB00" stroke="#FFFFFF" stroke-width="2" points="55.241,20.234 49.741,29.762 44.241,20.234 "/>
<polygon display="none" fill="#FFAB00" stroke="#FFFFFF" stroke-width="2" points="47.53,32.998 42.03,42.998 36.53,32.998 "/>
<path display="none" fill="#FFAB00" stroke="#FFFFFF" stroke-width="2" d="M63.03,26.748c0,2.899-2.35,5.25-5.25,5.25H26.282
	c-2.901,0-5.252-2.351-5.252-5.25v-10.5c0-2.899,2.351-5.25,5.252-5.25H57.78c2.9,0,5.25,2.351,5.25,5.25V26.748z"/>
<ellipse display="none" fill="#306698" cx="39.584" cy="26.574" rx="17.465" ry="6.299"/>
<ellipse display="none" fill="#FFFFFF" cx="39.584" cy="25.836" rx="12.884" ry="4.461"/>
<ellipse display="none" fill="#306698" cx="40.157" cy="25.378" rx="10.308" ry="3.607"/>
<polygon display="none" fill="#48B4E8" stroke="#FFFFFF" points="48.095,31.873 40.267,0.873 54.144,7.021 "/>
<circle display="none" fill="none" stroke="#FFFFFF" stroke-width="2" cx="40.5" cy="41.554" r="11.5"/>
<path display="none" fill="#FFFFFF" d="M39.713,39.576h-3.359v-2.234h6.297v9.672h3.438v2.234H35.948v-2.234h3.766L39.713,39.576
	L39.713,39.576z M42.885,34.09c0,0.258-0.047,0.5-0.141,0.726c-0.095,0.227-0.226,0.424-0.394,0.591
	c-0.168,0.168-0.363,0.3-0.591,0.398c-0.227,0.098-0.472,0.146-0.737,0.146c-0.265,0-0.514-0.049-0.742-0.146
	c-0.23-0.098-0.43-0.23-0.598-0.398c-0.167-0.167-0.299-0.365-0.393-0.591c-0.094-0.226-0.141-0.468-0.141-0.726
	c0-0.257,0.047-0.499,0.141-0.726c0.094-0.227,0.225-0.425,0.393-0.597c0.168-0.171,0.366-0.306,0.598-0.404
	c0.229-0.098,0.478-0.146,0.742-0.146c0.266,0,0.512,0.049,0.737,0.146c0.226,0.097,0.423,0.232,0.591,0.404
	c0.168,0.172,0.299,0.371,0.394,0.597C42.838,33.59,42.885,33.833,42.885,34.09z"/>
<text transform="matrix(1 0 0 1 27.2446 47.248)" display="none" fill="#FFFFFF" enable-background="new    " font-family="'Consolas-Bold'" font-size="24">i</text>
<rect x="8.12" y="15.998" display="none" fill="#FF0000" width="69.125" height="44.5"/>
<ellipse display="none" fill="none" stroke="#FFFFFF" stroke-width="2" cx="38.563" cy="40.429" rx="19.688" ry="19.75"/>
<path fill="#FFFFFF" d="M52.805,37.875l-4.673-4.686v-5.413c0-0.979-0.788-1.771-1.767-1.771c-0.977,0-1.763,0.793-1.763,1.771
	v1.868l-3.48-3.489c-1.722-1.722-4.708-1.721-6.423,0.004L23.02,37.875c-0.685,0.691-0.685,1.813,0,2.505
	c0.689,0.692,1.813,0.692,2.501,0l11.676-11.715c0.377-0.38,1.052-0.38,1.427-0.002l11.68,11.717
	c0.348,0.347,0.803,0.517,1.249,0.517c0.456,0,0.906-0.171,1.249-0.517C53.489,39.69,53.489,38.569,52.805,37.875z"/>
<path fill="#FFFFFF" d="M38.526,32.029c-0.341-0.34-0.892-0.34-1.231,0L27.023,42.332c-0.161,0.162-0.253,0.384-0.253,0.617v7.511
	c0,1.764,1.428,3.192,3.184,3.192h5.085v-7.899h5.744v7.899h5.087c1.753,0,3.178-1.429,3.178-3.192v-7.511
	c0-0.235-0.091-0.455-0.253-0.617L38.526,32.029z"/>
</svg>
