<?xml version="1.0" encoding="utf-8"?>
<!-- Generator: Adobe Illustrator 12.0.0, SVG Export Plug-In  -->
<!DOCTYPE svg PUBLIC "-//W3C//DTD SVG 1.1//EN" "http://www.w3.org/Graphics/SVG/1.1/DTD/svg11.dtd" [
	<!ENTITY ns_flows "http://ns.adobe.com/Flows/1.0/">
	<!ENTITY ns_svg "http://www.w3.org/2000/svg">
	<!ENTITY ns_xlink "http://www.w3.org/1999/xlink">
]>
<svg  version="1.1" xmlns="&ns_svg;" xmlns:xlink="&ns_xlink;" xmlns:a="http://ns.adobe.com/AdobeSVGViewerExtensions/3.0/"
	 width="152" height="58" viewBox="4 1 152 58" enable-background="new 4 1 152 58" xml:space="preserve">
<defs>
</defs>
<rect display="none" fill="#FCAC00" width="160" height="60"/>
<g>
	<g>
		<path fill="#FFFFFF" d="M35.708,46.323c-2.43,4.026-6.833,6.729-11.879,6.729c-7.666,0-13.88-6.215-13.88-13.88
			c0-5.187,2.849-9.7,7.063-12.083l-1.571-5.865C8.688,24.386,4,31.224,4,39.172C4,50.123,12.877,59,23.829,59
			c6.684,0,12.582-3.316,16.173-8.383L35.708,46.323z"/>
	</g>
</g>
<g>
	<g>
		<path fill="#FFFFFF" d="M61.745,44.771c0.468-1.094,0.26-2.407-0.632-3.3c-0.892-0.893-2.206-1.101-3.3-0.633l-0.155-0.155
			l-6.832,6.832L38.243,34.932l-0.092,0.092v-0.067H30.04l-1.436-5.358h13.718v-0.005c1.638-0.022,2.96-1.353,2.96-2.996
			s-1.322-2.974-2.96-2.996v-0.003h-0.035c-0.001,0-0.003,0-0.005,0s-0.003,0-0.005,0H26.996l-1.874-6.994
			c3.24-0.829,5.639-3.759,5.639-7.258c0-4.142-3.358-7.5-7.5-7.5s-7.5,3.358-7.5,7.5c0,2.345,1.077,4.437,2.762,5.812l3.799,14.179
			v0.261h0.07l1.93,7.201v4.157h11.459l10.802,10.802h0L50.825,56l4.243-4.242h0l6.832-6.832L61.745,44.771z"/>
	</g>
</g>
<text transform="matrix(1 0 0 1 49.833 34.5)" display="none" fill="#FFFFFF" font-family="'HighwayGothic'" font-size="26">Parking</text>
<text transform="matrix(1 0 0 1 35.833 12.666)" display="none" fill="#FFFFFF" font-family="'HighwayGothicWide'" font-size="14">Disabled </text>
<text transform="matrix(1 0 0 1 62 52)" display="none"><tspan x="0" y="0" display="inline" fill="#FFFFFF" font-family="'HighwayGothicWide'" font-size="10"> </tspan><tspan x="2.55" y="0" display="inline" fill="#FFFFFF" font-family="'HighwayGothicWide'" font-size="14">Spaces</tspan><tspan x="45.655" y="0" display="inline" fill="#FFFFFF" font-family="'HighwayGothicWide'" font-size="12"> </tspan><tspan x="48.716" y="0" display="inline" fill="#FFFFFF" font-family="'HighwayGothicWide'" font-size="8">Hong Kong</tspan></text>
<path fill="#FFFFFF" d="M71.612,49.267c-0.01,0.831-0.333,1.521-0.972,2.071c-0.639,0.551-1.532,0.826-2.68,0.826
	c-1.531,0-2.777-0.644-3.738-1.932l1.4-0.951c0.635,0.83,1.433,1.255,2.394,1.273c0.598,0.01,1.066-0.107,1.407-0.35
	c0.34-0.242,0.516-0.564,0.525-0.966c0.028-0.336-0.107-0.61-0.406-0.825c-0.298-0.215-0.905-0.429-1.82-0.644
	c-1.279-0.299-2.135-0.667-2.569-1.105s-0.656-0.951-0.665-1.539c-0.019-0.681,0.273-1.285,0.875-1.812
	c0.602-0.527,1.384-0.791,2.345-0.791c1.521,0.074,2.688,0.666,3.499,1.774l-1.329,0.882c-0.514-0.597-1.237-0.934-2.17-1.008
	c-0.504,0-0.887,0.094-1.147,0.28c-0.262,0.187-0.383,0.396-0.364,0.63c-0.009,0.261,0.131,0.476,0.42,0.644
	s0.705,0.304,1.246,0.406c1.307,0.242,2.256,0.637,2.848,1.183C71.303,47.86,71.603,48.511,71.612,49.267z"/>
<path fill="#FFFFFF" d="M78.776,48.608c0,0.943-0.235,1.771-0.706,2.486c-0.472,0.714-1.178,1.075-2.119,1.085
	c-0.485-0.01-0.9-0.173-1.245-0.489v2.845l-1.68,0.855V45.15h1.68l-0.001,0.294c0.336-0.271,0.77-0.411,1.301-0.421
	c0.868,0,1.546,0.366,2.036,1.1C78.531,46.855,78.776,47.685,78.776,48.608z M77.253,48.583c0-0.569-0.124-1.032-0.371-1.387
	s-0.595-0.532-1.042-0.532c-0.495,0.028-0.873,0.243-1.134,0.645v2.604c0.224,0.383,0.593,0.584,1.105,0.603
	c0.429,0,0.776-0.185,1.043-0.553C77.12,49.594,77.253,49.134,77.253,48.583z"/>
<path fill="#FFFFFF" d="M85.838,51.999h-1.586v-0.294c-0.494,0.28-1.054,0.42-1.679,0.42c-0.802,0-1.413-0.227-1.832-0.679
	c-0.42-0.452-0.63-1.024-0.63-1.715c0-0.709,0.249-1.26,0.748-1.651s1.126-0.588,1.881-0.588c0.513,0,1.012,0.07,1.496,0.21
	c-0.019-0.708-0.406-1.085-1.162-1.132c-0.561-0.01-1.11,0.154-1.652,0.49l-0.783-1.248c0.84-0.552,1.661-0.828,2.464-0.828
	c0.774,0,1.424,0.266,1.948,0.798s0.787,1.223,0.787,2.072V51.999z M84.252,50.333v-1.148c-0.54-0.149-1.016-0.224-1.425-0.224
	c-0.382,0-0.681,0.084-0.895,0.252s-0.321,0.369-0.321,0.602c0,0.243,0.103,0.453,0.308,0.631c0.204,0.177,0.493,0.266,0.866,0.266
	C83.204,50.711,83.693,50.585,84.252,50.333z"/>
<path fill="#FFFFFF" d="M92.656,50.877c-0.69,0.858-1.535,1.287-2.533,1.287c-0.943,0-1.723-0.338-2.338-1.015
	c-0.616-0.677-0.924-1.532-0.924-2.568c0-1.035,0.308-1.894,0.924-2.575c0.615-0.681,1.395-1.021,2.338-1.021
	c0.998,0,1.843,0.43,2.533,1.289l-0.993,0.994c-0.439-0.411-0.943-0.63-1.513-0.658c-0.494,0-0.898,0.185-1.211,0.553
	s-0.469,0.842-0.469,1.42c0,0.569,0.156,1.04,0.469,1.413s0.717,0.56,1.211,0.56c0.569-0.047,1.041-0.303,1.414-0.77L92.656,50.877z
	"/>
<path fill="#FFFFFF" d="M99.459,49.102h-4.18c0.037,0.486,0.198,0.86,0.483,1.123c0.284,0.262,0.576,0.393,0.875,0.393
	c0.382,0,0.761-0.178,1.134-0.532l1.036,1.036c-0.588,0.701-1.312,1.051-2.171,1.051c-0.842,0-1.554-0.343-2.138-1.029
	s-0.876-1.529-0.876-2.529c0-0.99,0.284-1.831,0.854-2.521c0.569-0.691,1.265-1.037,2.086-1.037c0.97,0.01,1.693,0.383,2.169,1.12
	s0.718,1.55,0.728,2.437V49.102z M97.811,47.789c-0.019-0.364-0.146-0.664-0.385-0.897s-0.511-0.347-0.818-0.337
	c-0.346-0.01-0.642,0.11-0.889,0.357c-0.247,0.248-0.375,0.54-0.385,0.877H97.811z"/>
<path fill="#FFFFFF" d="M106.248,50.057c-0.01,0.616-0.271,1.117-0.785,1.505c-0.515,0.387-1.187,0.585-2.018,0.595
	c-1.11-0.019-2.128-0.29-3.052-0.813l0.756-1.457c0.793,0.458,1.545,0.69,2.254,0.7c0.457,0,0.772-0.056,0.945-0.168
	c0.173-0.111,0.259-0.266,0.259-0.462c0-0.205-0.084-0.358-0.252-0.462c-0.168-0.102-0.509-0.2-1.021-0.293
	c-1.027-0.178-1.721-0.45-2.08-0.818c-0.359-0.369-0.534-0.763-0.524-1.183c-0.01-0.597,0.224-1.108,0.7-1.532
	c0.476-0.425,1.12-0.637,1.932-0.637c0.915,0,1.793,0.247,2.635,0.742l-0.688,1.358c-0.579-0.326-1.215-0.509-1.905-0.546
	c-0.41,0.01-0.686,0.059-0.826,0.146c-0.14,0.089-0.21,0.208-0.21,0.357c-0.009,0.149,0.059,0.262,0.203,0.336
	s0.423,0.14,0.833,0.195c0.971,0.122,1.686,0.386,2.144,0.791C106.005,48.818,106.238,49.366,106.248,50.057z"/>
<path fill="#FFFFFF" d="M115.794,52h-1.188v-2.937l-3.008,0.03V52h-1.203v-6.703h1.203v2.594h3.008v-2.594h1.188V52z"/>
<path fill="#FFFFFF" d="M121.083,49.56c0,0.706-0.208,1.309-0.624,1.809c-0.416,0.499-0.92,0.749-1.513,0.749
	c-0.599,0-1.104-0.25-1.518-0.749c-0.413-0.5-0.619-1.103-0.619-1.809c0-0.713,0.206-1.318,0.619-1.818
	c0.413-0.499,0.919-0.749,1.518-0.749c0.593,0,1.097,0.25,1.513,0.749C120.875,48.241,121.083,48.847,121.083,49.56z
	 M119.927,49.562c0-0.399-0.09-0.727-0.271-0.982c-0.18-0.256-0.413-0.384-0.7-0.384c-0.3,0-0.54,0.13-0.72,0.389
	c-0.181,0.26-0.271,0.585-0.271,0.978s0.09,0.72,0.271,0.982c0.18,0.263,0.42,0.394,0.72,0.394c0.287,0,0.521-0.131,0.7-0.394
	C119.837,50.281,119.927,49.954,119.927,49.562z"/>
<path fill="#FFFFFF" d="M121.837,47.141h1.133v0.381c0.3-0.301,0.696-0.451,1.188-0.451c0.526,0,0.954,0.182,1.283,0.545
	c0.33,0.363,0.498,0.835,0.505,1.415V52h-1.203v-2.907c0-0.26-0.078-0.474-0.234-0.64c-0.156-0.167-0.367-0.25-0.633-0.25
	c-0.239,0-0.45,0.088-0.632,0.265c-0.184,0.177-0.274,0.378-0.274,0.604V52h-1.133V47.141z"/>
<path fill="#FFFFFF" d="M126.889,49.579c0-0.659,0.175-1.249,0.524-1.772c0.35-0.521,0.834-0.783,1.453-0.783
	c0.359,0,0.669,0.099,0.929,0.296v-0.21h1.203v4.892c-0.007,0.647-0.226,1.183-0.656,1.605c-0.432,0.424-0.92,0.695-1.467,0.815
	l-0.271-1.143c0.714-0.188,1.11-0.615,1.19-1.283l0.003-0.221c-0.246,0.227-0.543,0.343-0.89,0.35
	c-0.673-0.007-1.178-0.265-1.515-0.773C127.057,50.842,126.889,50.252,126.889,49.579z M127.982,49.558
	c0,0.394,0.095,0.722,0.284,0.985c0.188,0.263,0.437,0.395,0.741,0.395c0.365-0.014,0.628-0.156,0.787-0.43v-1.86
	c-0.186-0.286-0.455-0.44-0.807-0.46c-0.318,0-0.566,0.127-0.742,0.38C128.07,48.821,127.982,49.15,127.982,49.558z"/>
<path fill="#FFFFFF" d="M140.165,52h-1.37l-1.709-3.481l-1.271,1.601V52h-1.203v-6.703h1.203v2.852l2.37-2.852h1.55l-1.78,2.191
	L140.165,52z"/>
<path fill="#FFFFFF" d="M145.332,49.56c0,0.706-0.208,1.309-0.624,1.809c-0.416,0.499-0.92,0.749-1.513,0.749
	c-0.6,0-1.105-0.25-1.518-0.749c-0.413-0.5-0.619-1.103-0.619-1.809c0-0.713,0.206-1.318,0.619-1.818
	c0.412-0.499,0.918-0.749,1.518-0.749c0.593,0,1.097,0.25,1.513,0.749C145.124,48.241,145.332,48.847,145.332,49.56z
	 M144.176,49.562c0-0.399-0.09-0.727-0.271-0.982c-0.18-0.256-0.413-0.384-0.7-0.384c-0.3,0-0.54,0.13-0.72,0.389
	c-0.181,0.26-0.271,0.585-0.271,0.978s0.09,0.72,0.271,0.982c0.18,0.263,0.42,0.394,0.72,0.394c0.287,0,0.521-0.131,0.7-0.394
	C144.086,50.281,144.176,49.954,144.176,49.562z"/>
<path fill="#FFFFFF" d="M146.087,47.141h1.133v0.381c0.3-0.301,0.696-0.451,1.188-0.451c0.526,0,0.954,0.182,1.283,0.545
	c0.33,0.363,0.498,0.835,0.505,1.415V52h-1.203v-2.907c0-0.26-0.078-0.474-0.234-0.64c-0.156-0.167-0.367-0.25-0.633-0.25
	c-0.239,0-0.45,0.088-0.632,0.265c-0.184,0.177-0.274,0.378-0.274,0.604V52h-1.133V47.141z"/>
<path fill="#FFFFFF" d="M151.139,49.579c0-0.659,0.175-1.249,0.524-1.772c0.35-0.521,0.834-0.783,1.453-0.783
	c0.359,0,0.669,0.099,0.929,0.296v-0.21h1.203v4.892c-0.007,0.647-0.226,1.183-0.656,1.605c-0.432,0.424-0.92,0.695-1.467,0.815
	l-0.271-1.143c0.714-0.188,1.11-0.615,1.19-1.283l0.003-0.221c-0.246,0.227-0.543,0.343-0.89,0.35
	c-0.673-0.007-1.178-0.265-1.515-0.773C151.307,50.842,151.139,50.252,151.139,49.579z M152.232,49.558
	c0,0.394,0.095,0.722,0.284,0.985c0.188,0.263,0.437,0.395,0.741,0.395c0.365-0.014,0.628-0.156,0.787-0.43v-1.86
	c-0.186-0.286-0.455-0.44-0.807-0.46c-0.318,0-0.566,0.127-0.742,0.38C152.32,48.821,152.232,49.15,152.232,49.558z"/>
<path fill="#FFFFFF" d="M57.368,26.938h-3.301V34.5h-2.75V17.078h5.742c1.281,0,2.313,0.187,3.092,0.56s1.416,0.967,1.91,1.782
	c0.493,0.815,0.74,1.665,0.74,2.549c0,0.919-0.199,1.752-0.598,2.498s-1.001,1.348-1.807,1.808
	C59.591,26.733,58.582,26.955,57.368,26.938z M60.021,22.026c0-0.677-0.203-1.198-0.61-1.563c-0.407-0.365-0.861-0.556-1.364-0.573
	h-4.025v4.297h4.13c0.52,0,0.961-0.191,1.325-0.573C59.839,23.233,60.021,22.703,60.021,22.026z"/>
<path fill="#FFFFFF" d="M75.31,34.506h-2.673V34.09c-0.677,0.485-1.431,0.736-2.264,0.754c-1.388-0.018-2.537-0.412-3.447-1.184
	c-0.911-0.771-1.366-1.895-1.366-3.368c0-1.266,0.421-2.328,1.262-3.187c0.842-0.858,1.982-1.279,3.422-1.262
	c0.799,0,1.545,0.096,2.238,0.286c0.035-1.267-0.606-1.961-1.924-2.083c-1.127-0.035-2.141,0.278-3.042,0.938l-1.378-2.109
	c1.248-0.885,2.695-1.354,4.342-1.406c1.352,0,2.49,0.386,3.416,1.158s1.396,1.896,1.414,3.37V34.506z M72.403,31.567v-2.864
	c-0.764-0.208-1.527-0.313-2.292-0.313c-0.607,0-1.11,0.2-1.511,0.599c-0.398,0.399-0.59,0.851-0.572,1.354
	c0,0.521,0.204,1.016,0.611,1.484c0.408,0.469,0.96,0.703,1.654,0.703C71.04,32.531,71.743,32.21,72.403,31.567z"/>
<path fill="#FFFFFF" d="M85.22,22.353l-0.91,2.523c-0.52-0.518-1.049-0.768-1.586-0.751c-1.161,0.035-1.776,0.85-1.846,2.444V34.5
	h-2.813V21.578h2.781l0.005,0.936c0.468-0.697,1.145-1.045,2.028-1.045C83.764,21.486,84.544,21.781,85.22,22.353z"/>
<path fill="#FFFFFF" d="M98.037,34.5h-3.172l-3.666-7.149l-1.586,1.664V34.5h-2.813V18.201l2.813-1.404v8.656l3.483-3.665h3.537
	l-3.354,3.483L98.037,34.5z"/>
<path fill="#FFFFFF" d="M103.665,18.203c0,0.399-0.139,0.733-0.414,1.003c-0.276,0.269-0.604,0.403-0.984,0.403
	c-0.363,0-0.687-0.143-0.971-0.43c-0.285-0.286-0.428-0.612-0.428-0.977c0-0.364,0.143-0.69,0.428-0.977
	c0.284-0.286,0.607-0.43,0.971-0.43c0.362,0,0.687,0.144,0.971,0.43C103.522,17.513,103.665,17.839,103.665,18.203z M103.696,34.5
	h-2.828V21.786h2.828V34.5z"/>
<path fill="#FFFFFF" d="M106.566,21.625h2.703v0.806c0.761-0.642,1.773-0.962,3.036-0.962c1.471,0,2.569,0.503,3.296,1.509
	s1.09,2.176,1.09,3.511V34.5h-2.672v-7.961c0.034-0.659-0.182-1.253-0.649-1.782c-0.468-0.528-1.057-0.776-1.768-0.741
	c-0.744,0-1.313,0.217-1.701,0.65c-0.391,0.434-0.585,1.058-0.585,1.873V34.5h-2.75V21.625z"/>
<path fill="#FFFFFF" d="M124.368,34.813c-3.457,0-5.187-2.156-5.187-6.469c0-4.503,1.746-6.79,5.239-6.859
	c1.037,0.018,1.832,0.32,2.386,0.908v-0.799h2.766v12.473c-0.122,3.396-1.677,5.639-4.664,6.73l-1.144-2.289
	c2.08-0.832,3.094-2.314,3.042-4.447C126.08,34.562,125.268,34.813,124.368,34.813z M121.885,28.317
	c0.017,2.688,0.839,4.04,2.464,4.058c0.968,0.018,1.771-0.39,2.411-1.223v-5.722c-0.501-0.85-1.279-1.274-2.334-1.274
	C122.731,24.26,121.885,25.647,121.885,28.317z"/>
<path fill="#FFFFFF" d="M44.317,7.961c0,1.923-0.756,3.305-2.269,4.146c-0.682,0.374-1.419,0.56-2.213,0.56H36.81V3.284h3.025
	c0.803,0,1.55,0.201,2.241,0.602C43.57,4.735,44.317,6.094,44.317,7.961z M42.638,7.961c0-1.242-0.462-2.12-1.386-2.633
	c-0.43-0.243-0.901-0.364-1.415-0.364h-1.316v6.023h1.316c0.458,0,0.905-0.121,1.344-0.364C42.152,10.1,42.638,9.212,42.638,7.961z"
	/>
<path fill="#FFFFFF" d="M47.845,3.947c0,0.243-0.084,0.448-0.252,0.616s-0.363,0.252-0.588,0.252c-0.242,0-0.443-0.079-0.602-0.238
	s-0.238-0.369-0.238-0.63c0-0.224,0.082-0.416,0.245-0.574c0.164-0.159,0.362-0.238,0.595-0.238c0.225,0,0.42,0.079,0.588,0.238
	C47.761,3.532,47.845,3.723,47.845,3.947z M47.845,5.821v6.846h-1.679V5.821H47.845z"/>
<path fill="#FFFFFF" d="M54.955,10.723c-0.01,0.616-0.271,1.118-0.785,1.505c-0.515,0.387-1.187,0.585-2.018,0.595
	c-1.11-0.019-2.128-0.29-3.052-0.813l0.756-1.457c0.793,0.458,1.545,0.691,2.254,0.7c0.457,0,0.772-0.056,0.945-0.168
	c0.172-0.112,0.259-0.266,0.259-0.462c0-0.205-0.084-0.359-0.252-0.461S52.554,9.96,52.04,9.867
	c-1.026-0.177-1.719-0.45-2.078-0.818s-0.535-0.763-0.525-1.182c-0.01-0.597,0.224-1.108,0.7-1.532
	c0.476-0.424,1.12-0.637,1.932-0.637c0.915,0,1.793,0.248,2.634,0.742l-0.687,1.358c-0.579-0.327-1.215-0.509-1.905-0.546
	c-0.41,0.009-0.686,0.059-0.826,0.147c-0.14,0.088-0.21,0.208-0.21,0.357c-0.009,0.149,0.059,0.261,0.203,0.336
	s0.423,0.14,0.833,0.196c0.971,0.122,1.686,0.385,2.144,0.791S54.945,10.033,54.955,10.723z"/>
<path fill="#FFFFFF" d="M61.69,12.666h-1.586v-0.294c-0.494,0.28-1.054,0.42-1.679,0.42c-0.802,0-1.413-0.226-1.832-0.679
	c-0.42-0.453-0.63-1.024-0.63-1.715c0-0.709,0.249-1.26,0.748-1.651s1.126-0.588,1.881-0.588c0.513,0,1.012,0.07,1.496,0.21
	c-0.019-0.708-0.406-1.085-1.162-1.132c-0.561-0.009-1.11,0.154-1.652,0.49l-0.783-1.248c0.84-0.552,1.661-0.828,2.464-0.828
	c0.774,0,1.424,0.266,1.948,0.798c0.524,0.532,0.787,1.223,0.787,2.072V12.666z M60.104,11V9.852
	c-0.54-0.149-1.016-0.224-1.425-0.224c-0.382,0-0.681,0.084-0.895,0.252s-0.321,0.369-0.321,0.602c0,0.243,0.103,0.453,0.308,0.63
	c0.204,0.177,0.493,0.266,0.866,0.266C59.057,11.377,59.546,11.251,60.104,11z"/>
<path fill="#FFFFFF" d="M68.77,9.275c0,0.943-0.235,1.771-0.706,2.486c-0.472,0.714-1.178,1.076-2.119,1.085
	c-0.485-0.009-0.9-0.172-1.245-0.489v0.308h-1.68V3.975l1.68-0.84l-0.001,2.976c0.336-0.271,0.77-0.412,1.301-0.421
	c0.868,0,1.546,0.366,2.036,1.1C68.524,7.522,68.77,8.351,68.77,9.275z M67.246,9.25c0-0.57-0.124-1.032-0.371-1.387
	c-0.247-0.354-0.595-0.532-1.042-0.532c-0.495,0.028-0.873,0.243-1.134,0.645v2.604c0.224,0.383,0.593,0.584,1.105,0.603
	c0.429,0,0.776-0.185,1.043-0.553C67.113,10.26,67.246,9.8,67.246,9.25z"/>
<path fill="#FFFFFF" d="M72.05,12.667h-1.68V3.975l1.68-0.84V12.667z"/>
<path fill="#FFFFFF" d="M79.315,9.768h-4.18c0.037,0.486,0.198,0.861,0.483,1.123c0.284,0.262,0.576,0.393,0.875,0.393
	c0.382,0,0.761-0.177,1.134-0.532l1.036,1.037c-0.588,0.7-1.312,1.05-2.171,1.05c-0.842,0-1.554-0.343-2.138-1.03
	s-0.876-1.529-0.876-2.529c0-0.99,0.284-1.831,0.854-2.522c0.569-0.691,1.265-1.037,2.086-1.037c0.97,0.009,1.693,0.383,2.169,1.12
	c0.476,0.738,0.718,1.55,0.728,2.437V9.768z M77.667,8.456c-0.019-0.365-0.146-0.664-0.385-0.897
	c-0.238-0.234-0.511-0.346-0.818-0.337c-0.346-0.009-0.642,0.11-0.889,0.358c-0.247,0.248-0.375,0.54-0.385,0.876H77.667z"/>
<path fill="#FFFFFF" d="M80.589,9.275c0-0.924,0.245-1.753,0.735-2.485c0.491-0.733,1.171-1.1,2.039-1.1
	c0.533,0.009,0.968,0.149,1.304,0.421V3.973l1.68-0.838v9.529h-1.68l-0.002-0.308c-0.345,0.317-0.761,0.48-1.246,0.489
	c-0.943-0.009-1.651-0.371-2.123-1.085S80.589,10.218,80.589,9.275z M82.112,9.25c0,0.551,0.133,1.011,0.4,1.379
	c0.267,0.369,0.615,0.553,1.045,0.553c0.516-0.019,0.885-0.219,1.109-0.603V7.975c-0.262-0.402-0.641-0.616-1.137-0.645
	c-0.449,0-0.798,0.178-1.046,0.532C82.236,8.218,82.112,8.68,82.112,9.25z"/>
</svg>
