<?xml version="1.0" encoding="utf-8"?>
<!-- Generator: Adobe Illustrator 12.0.0, SVG Export Plug-In . SVG Version: 6.00 Build 51448)  -->
<!DOCTYPE svg PUBLIC "-//W3C//DTD SVG 1.1//EN" "http://www.w3.org/Graphics/SVG/1.1/DTD/svg11.dtd" [
	<!ENTITY ns_svg "http://www.w3.org/2000/svg">
	<!ENTITY ns_xlink "http://www.w3.org/1999/xlink">
]>
<svg  version="1.1" id="Layer_1" xmlns="&ns_svg;" xmlns:xlink="&ns_xlink;" width="52" height="52" viewBox="34.75 13 52 52"
	 overflow="visible" enable-background="new 34.75 13 52 52" xml:space="preserve">
<rect x="0.5" y="0.5" display="none" fill="#FFAC00" stroke="#FFFFFF" width="118.5" height="68.75"/>
<circle display="none" fill="#FFAC00" stroke="#FFFFFF" stroke-width="3" cx="60.821" cy="39.084" r="24"/>
<path display="none" fill="#FFFFFF" d="M62.127,59.544c-0.719,0.72-1.895,0.72-2.612,0L40.36,40.389
	c-0.719-0.718-0.719-1.895,0-2.612l19.155-19.154c0.718-0.718,1.894-0.718,2.612,0l19.156,19.154c0.717,0.718,0.717,1.895,0,2.614
	L62.127,59.544z"/>
<ellipse fill="#FFAC00" stroke="#FFFFFF" stroke-width="2" cx="60.276" cy="50.362" rx="19.846" ry="6.66"/>
<circle fill="#FFFFFF" cx="60.572" cy="24.312" r="11.577"/>
<circle fill="#FFAC00" cx="60.572" cy="24.312" r="3.858"/>
<polygon fill="#FFAC00" points="71.133,33.798 60.572,53.577 50.015,33.798 "/>
<polygon fill="#FFFFFF" points="71.133,28.976 60.572,48.755 50.015,28.976 "/>
<ellipse display="none" fill="#FFFFFF" stroke="#FFAC00" stroke-width="2" cx="60.821" cy="45.056" rx="12" ry="4.027"/>
<rect x="54.713" y="37.368" display="none" fill="#FFFFFF" stroke="#FFFFFF" stroke-width="2" width="12.217" height="5.228"/>
<ellipse display="none" fill="#FFFFFF" stroke="#FFAC00" stroke-width="2" cx="60.885" cy="28.012" rx="2.875" ry="2.929"/>
<path display="none" fill="#FFFFFF" d="M65.557,35.832c0-2.63-2.093-4.759-4.672-4.759c-2.58,0-4.671,2.129-4.671,4.759
	c0,0.125,0.027,0.242,0.036,0.365h-0.036v5.227h2.194v3.854h4.953v-3.854h2.195v-5.227H65.52
	C65.529,36.074,65.557,35.957,65.557,35.832z"/>
<path display="none" fill="none" stroke="#FFAC00" stroke-width="2" d="M65.557,35.832c0-2.63-2.093-4.759-4.672-4.759
	c-2.58,0-4.671,2.129-4.671,4.759c0,0.125,0.027,0.242,0.036,0.365h-0.036v5.227h2.194v3.854h4.953v-3.854h2.195v-5.227H65.52
	C65.529,36.074,65.557,35.957,65.557,35.832z"/>
</svg>
