<?xml version="1.0" encoding="utf-8"?>
<!-- Generator: Adobe Illustrator 12.0.0, SVG Export Plug-In  -->
<!DOCTYPE svg PUBLIC "-//W3C//DTD SVG 1.1//EN" "http://www.w3.org/Graphics/SVG/1.1/DTD/svg11.dtd" [
	<!ENTITY ns_flows "http://ns.adobe.com/Flows/1.0/">
	<!ENTITY ns_svg "http://www.w3.org/2000/svg">
	<!ENTITY ns_xlink "http://www.w3.org/1999/xlink">
]>
<svg  version="1.1" xmlns="&ns_svg;" xmlns:xlink="&ns_xlink;" xmlns:a="http://ns.adobe.com/AdobeSVGViewerExtensions/3.0/"
	 width="25" height="38" viewBox="36.12 -0.312 25 38" enable-background="new 36.12 -0.312 25 38" xml:space="preserve">
<defs>
</defs>
<circle display="none" fill="#48B4E8" stroke="#FFFFFF" stroke-width="3" cx="26.119" cy="54.689" r="18"/>
<text transform="matrix(1 0 0 1 56.5493 38.7275)" display="none" fill="#FFFFFF" font-family="'TrebuchetMS-Bold'" font-size="16">EN</text>
<circle display="none" fill="#FFAB00" stroke="#FFFFFF" stroke-width="3" cx="25.5" cy="54.37" r="24"/>
<path display="none" fill="#FFFFFF" d="M26.807,74.83c-0.719,0.719-1.895,0.719-2.612,0L5.04,55.675
	c-0.719-0.718-0.719-1.895,0-2.612l19.154-19.155c0.719-0.718,1.894-0.718,2.612,0l19.156,19.155c0.717,0.718,0.717,1.895,0,2.613
	L26.807,74.83z"/>
<circle display="none" fill="#FFAB00" cx="49.741" cy="42.23" r="8.736"/>
<circle display="none" fill="#FFFFFF" cx="49.741" cy="39.23" r="2.912"/>
<text transform="matrix(1 0 0 1 22.8662 22.1885)" display="none" fill="#FFFFFF" font-family="'DFZongYi-W7-WIN-BF'" font-size="14">閣下在此</text>
<polygon display="none" fill="#FFAB00" stroke="#FFFFFF" stroke-width="2" points="55.241,25.05 49.741,34.577 44.241,25.05 "/>
<path display="none" fill="#FFAB00" stroke="#FFFFFF" stroke-width="2" d="M80.741,20.139c0,2.282-1.849,4.133-4.133,4.133H22.874
	c-2.282,0-4.133-1.851-4.133-4.133V7.738c0-2.282,1.851-4.133,4.133-4.133h53.734c2.284,0,4.133,1.851,4.133,4.133V20.139z"/>
<path display="none" fill="#FFFFFF" d="M48.975,7.909v1.805h-5.797v10.623h-1.982V9.714h-4.703V7.909H48.975z M43.493,11.149h2.037
	l1.299,5.195c0.064,0.328,0.215,0.492,0.451,0.492h1.039v1.805h-2.037c-0.602,0-0.984-0.346-1.148-1.039L43.493,11.149z"/>
<path display="none" fill="#FFFFFF" d="M62.852,8.798v1.846h-7.369L53.5,13.692v6.754h-1.969V14.54h-1.094v-2.037h1.148
	c0.246,0,0.451-0.137,0.615-0.41l0.971-1.449h-2.57V8.798h3.801l0.738-1.107h2.242l-0.711,1.107H62.852z M62.633,13.597v1.859H59.42
	v2.789h3.719v1.859h-9.311v-1.859h3.459v-2.789H54.17v-1.859h3.117v-2.133h2.133v2.133H62.633z"/>
<polygon display="none" fill="#FFAB00" stroke="#FFFFFF" stroke-width="2" points="47.53,37.813 42.03,47.813 36.53,37.813 "/>
<path display="none" fill="#FFAB00" stroke="#FFFFFF" stroke-width="2" d="M63.03,31.563c0,2.899-2.35,5.25-5.25,5.25H26.282
	c-2.901,0-5.252-2.351-5.252-5.25v-10.5c0-2.899,2.351-5.25,5.252-5.25H57.78c2.9,0,5.25,2.351,5.25,5.25V31.563z"/>
<path display="none" fill="#FFFFFF" d="M26.51,19.313h3.648l2.375,4.688l2.234-4.688h3.695l-4.375,7.781v4.219h-3.203v-4.219
	L26.51,19.313z"/>
<path display="none" fill="#FFFFFF" d="M38.776,27.126c0-1.748,0.269-2.898,0.805-3.452c0.537-0.553,1.686-0.83,3.445-0.83
	c1.781,0,2.914,0.295,3.398,0.885c0.484,0.589,0.727,1.756,0.727,3.498c0,1.732-0.286,2.862-0.859,3.389
	c-0.572,0.527-1.682,0.791-3.328,0.791c-1.724,0-2.854-0.303-3.391-0.908C39.042,29.894,38.776,28.77,38.776,27.126z M41.526,27.142
	c0,1.004,0.1,1.615,0.297,1.835c0.198,0.214,0.602,0.321,1.211,0.321c0.604,0,0.982-0.128,1.133-0.384
	c0.156-0.261,0.234-0.857,0.234-1.788c0-0.936-0.083-1.531-0.25-1.788c-0.161-0.256-0.533-0.384-1.117-0.384
	c-0.672,0-1.091,0.131-1.258,0.392C41.61,25.607,41.526,26.206,41.526,27.142z"/>
<path display="none" fill="#FFFFFF" d="M48.526,22.938h2.75v4.943c0,0.559,0.076,0.934,0.227,1.127
	c0.156,0.192,0.451,0.289,0.883,0.289c0.475,0,0.844-0.123,1.109-0.368c0.271-0.25,0.406-0.566,0.406-0.947v-5.045h2.75v8.375h-2.75
	v-1.531c-0.338,1.083-1.15,1.625-2.438,1.625c-1.958,0-2.938-0.949-2.938-2.847V22.938z"/>
<ellipse display="none" fill="#306698" cx="39.584" cy="31.39" rx="17.465" ry="6.299"/>
<ellipse display="none" fill="#FFFFFF" cx="39.584" cy="30.651" rx="12.884" ry="4.461"/>
<ellipse display="none" fill="#306698" cx="40.157" cy="30.193" rx="10.308" ry="3.607"/>
<polygon fill="#48B4E8" stroke="#FFFFFF" points="48.094,36.688 40.266,5.688 54.143,11.836 "/>
<path fill="#48B4E8" stroke="#FFFFFF" d="M59.67,12c0,6.35-5.149,11.5-11.5,11.5c-4.857,0-9.011-3.01-10.696-7.268
	c-0.518-1.31-0.804-2.738-0.804-4.232c0-6.353,5.147-11.5,11.5-11.5C54.521,0.5,59.67,5.647,59.67,12z"/>
<circle fill="#FFFFFF" cx="48.169" cy="11.999" r="8.16"/>
<circle fill="#306698" cx="48.17" cy="11.999" r="6.585"/>
<path fill="#FFFFFF" d="M46.994,12.637l-0.501,2.703h-1.338l1.391-7.359c0.699-0.073,1.234-0.109,1.603-0.109
	c1.947,0,2.921,0.733,2.921,2.199c0,0.825-0.296,1.474-0.887,1.945c-0.592,0.472-1.357,0.707-2.299,0.707
	C47.582,12.723,47.286,12.694,46.994,12.637z M47.642,9.089l-0.44,2.431c0.17,0.047,0.388,0.07,0.652,0.07
	c0.568,0,1.02-0.122,1.354-0.367s0.502-0.597,0.502-1.057c0-0.774-0.438-1.162-1.312-1.162C48.165,9.004,47.913,9.032,47.642,9.089z
	"/>
</svg>
