<?xml version="1.0" encoding="utf-8"?>
<!-- Generator: Adobe Illustrator 12.0.0, SVG Export Plug-In  -->
<!DOCTYPE svg PUBLIC "-//W3C//DTD SVG 1.1//EN" "http://www.w3.org/Graphics/SVG/1.1/DTD/svg11.dtd" [
	<!ENTITY ns_flows "http://ns.adobe.com/Flows/1.0/">
	<!ENTITY ns_svg "http://www.w3.org/2000/svg">
	<!ENTITY ns_xlink "http://www.w3.org/1999/xlink">
]>
<svg  version="1.1" xmlns="&ns_svg;" xmlns:xlink="&ns_xlink;" xmlns:a="http://ns.adobe.com/AdobeSVGViewerExtensions/3.0/"
	 width="37" height="36" viewBox="43 26 37 36" enable-background="new 43 26 37 36" xml:space="preserve">
<defs>
</defs>
<rect x="7.75" y="0.5" display="none" fill="#FFAB00" stroke="#FFFFFF" width="118.5" height="68.75"/>
<circle display="none" fill="#FFAB00" stroke="#FFFFFF" stroke-width="3" cx="68.071" cy="39.084" r="24"/>
<path display="none" fill="#FFFFFF" d="M69.377,59.544c-0.719,0.719-1.895,0.719-2.612,0L47.61,40.389
	c-0.719-0.718-0.719-1.895,0-2.612l19.155-19.154c0.718-0.718,1.894-0.718,2.612,0l19.156,19.154c0.717,0.718,0.717,1.895,0,2.613
	L69.377,59.544z"/>
<ellipse display="none" fill="#FFFFFF" stroke="#FFAB00" stroke-width="2" cx="67.821" cy="44.806" rx="12" ry="4.027"/>
<circle display="none" fill="#FFAB00" cx="68" cy="29.055" r="7"/>
<circle display="none" fill="#FFFFFF" cx="68" cy="29.055" r="2.333"/>
<polygon display="none" fill="#FFFFFF" points="74.385,34.791 68,46.75 61.616,34.791 "/>
<polygon display="none" fill="#FFAB00" points="74.385,31.875 68,43.834 61.616,31.875 "/>
<ellipse display="none" fill="#FFFFFF" stroke="#FFAB00" stroke-width="2" cx="68.071" cy="45.056" rx="12" ry="4.027"/>
<rect x="61.963" y="37.368" display="none" fill="#FFFFFF" stroke="#FFFFFF" stroke-width="2" width="12.216" height="5.228"/>
<ellipse display="none" fill="#FFFFFF" stroke="#FFAB00" stroke-width="2" cx="68.135" cy="28.012" rx="2.875" ry="2.929"/>
<g display="none">
	<g display="inline">
		<path fill="#FFFFFF" d="M72.806,35.832c0-2.63-2.092-4.759-4.671-4.759c-2.58,0-4.671,2.129-4.671,4.759
			c0,0.125,0.027,0.242,0.036,0.365h-0.036v5.227h2.194v3.853h4.954v-3.853h2.194v-5.227H72.77
			C72.779,36.074,72.806,35.957,72.806,35.832z"/>
	</g>
	<g display="inline">
		<path fill="none" stroke="#FFAB00" stroke-width="2" d="M72.806,35.832c0-2.63-2.092-4.759-4.671-4.759
			c-2.58,0-4.671,2.129-4.671,4.759c0,0.125,0.027,0.242,0.036,0.365h-0.036v5.227h2.194v3.853h4.954v-3.853h2.194v-5.227H72.77
			C72.779,36.074,72.806,35.957,72.806,35.832z"/>
	</g>
</g>
<path display="none" fill="#FFAB00" d="M80.902,47.317c0.419,0.418,0.466,1.058,0.104,1.42l-1.891,1.891
	c-0.361,0.361-1.001,0.314-1.42-0.104l-5.052-5.052c-0.419-0.42-0.466-1.059-0.104-1.421l1.891-1.891
	c0.362-0.362,1.001-0.314,1.42,0.104L80.902,47.317z"/>
<polygon display="none" fill="#FFAB00" points="72.498,45.407 72.086,41.708 75.786,42.119 "/>
<circle display="none" fill="#FFFFFF" stroke="#FFAB00" stroke-width="2" cx="66.085" cy="35.707" r="8.836"/>
<ellipse transform="matrix(0.7071 -0.7071 0.7071 0.7071 -7.3545 56.5368)" display="none" fill="#FFAB00" cx="64.565" cy="37.146" rx="4.186" ry="5.639"/>
<ellipse transform="matrix(0.7071 -0.7071 0.7071 0.7071 -5.2685 57.4483)" display="none" fill="#FFFFFF" cx="66.709" cy="35.083" rx="5.164" ry="6.859"/>
<rect y="6" display="none" fill="#48B4E8" width="132" height="73"/>
<path display="none" fill="#FFFFFF" d="M81.61,48.404c0.488,0.487,0.592,1.184,0.229,1.546l-1.891,1.891
	c-0.361,0.361-1.058,0.258-1.546-0.23l-5.884-5.884c-0.488-0.489-0.591-1.185-0.23-1.547l1.891-1.891
	c0.361-0.362,1.058-0.258,1.546,0.23L81.61,48.404z"/>
<polygon display="none" fill="#FFFFFF" points="72.248,45.536 71.836,41.837 75.536,42.248 "/>
<circle display="none" fill="#48B4E8" stroke="#FFFFFF" stroke-width="2" cx="65.836" cy="35.835" r="8.836"/>
<ellipse transform="matrix(0.707 -0.7072 0.7072 0.707 -7.518 56.4009)" display="none" fill="#FFFFFF" stroke="#48B4E8" cx="64.315" cy="37.274" rx="4.186" ry="5.639"/>
<ellipse transform="matrix(0.7071 -0.7072 0.7072 0.7071 -5.4321 57.3119)" display="none" fill="#48B4E8" cx="66.459" cy="35.212" rx="5.164" ry="6.859"/>
<circle display="none" fill="#48B4E8" stroke="#FFFFFF" stroke-width="2" cx="62.722" cy="44.279" r="18"/>
<circle display="none" fill="#FFFFFF" stroke="#48B4E8" stroke-width="3" cx="62.722" cy="44.278" r="14.999"/>
<path display="none" fill="#48B4E8" d="M63.515,56.701c-0.437,0.436-1.15,0.436-1.586,0L50.3,45.071
	c-0.437-0.436-0.437-1.149,0-1.585l11.629-11.629c0.436-0.437,1.149-0.437,1.586,0l11.63,11.629c0.436,0.436,0.436,1.149,0,1.587
	L63.515,56.701z"/>
<polygon display="none" fill="#FFFFFF" points="66.476,43.47 62.036,43.47 62.036,51.319 58.555,51.319 58.555,40.745 
	66.472,40.745 66.476,40.745 66.476,39.32 71.681,42.099 66.472,44.829 "/>
<ellipse fill="#306698" cx="61.465" cy="55.701" rx="17.465" ry="6.299"/>
<ellipse fill="#FFFFFF" cx="61.465" cy="54.963" rx="12.884" ry="4.461"/>
<ellipse fill="#306698" cx="62.037" cy="54.505" rx="10.308" ry="3.607"/>
<polygon fill="#48B4E8" points="54.916,55.094 61.129,37.844 72.767,39.374 "/>
<path fill="#48B4E8" d="M80,36.312c0,5.494-4.455,9.949-9.95,9.949c-4.202,0-7.796-2.604-9.254-6.288
	c-0.449-1.133-0.695-2.368-0.695-3.661c0-5.496,4.454-9.95,9.95-9.95C75.545,26.362,80,30.816,80,36.312z"/>
<circle fill="#FFFFFF" cx="70.05" cy="36.311" r="8.16"/>
<circle fill="#306698" cx="70.05" cy="36.311" r="6.585"/>
<path fill="#FFFFFF" d="M68.874,36.948l-0.501,2.703h-1.338l1.391-7.359c0.7-0.073,1.235-0.109,1.603-0.109
	c1.947,0,2.92,0.733,2.92,2.199c0,0.825-0.295,1.474-0.887,1.945s-1.357,0.707-2.298,0.707
	C69.462,37.034,69.166,37.006,68.874,36.948z M69.522,33.4l-0.44,2.431c0.17,0.047,0.388,0.07,0.652,0.07
	c0.568,0,1.02-0.122,1.354-0.367c0.334-0.245,0.501-0.597,0.501-1.057c0-0.774-0.437-1.162-1.311-1.162
	C70.044,33.315,69.792,33.344,69.522,33.4z"/>
</svg>
