<?xml version="1.0" encoding="utf-8"?>
<!-- Generator: Adobe Illustrator 12.0.0, SVG Export Plug-In . SVG Version: 6.00 Build 51448)  -->
<!DOCTYPE svg PUBLIC "-//W3C//DTD SVG 1.1//EN" "http://www.w3.org/Graphics/SVG/1.1/DTD/svg11.dtd" [
	<!ENTITY ns_svg "http://www.w3.org/2000/svg">
	<!ENTITY ns_xlink "http://www.w3.org/1999/xlink">
]>
<svg  version="1.1" id="Layer_1" xmlns="&ns_svg;" xmlns:xlink="&ns_xlink;" width="30" height="30" viewBox="55 25 30 30"
	 overflow="visible" enable-background="new 55 25 30 30" xml:space="preserve">
<rect x="7.75" y="0.5" display="none" fill="#FFAC00" stroke="#FFFFFF" width="118.5" height="68.75"/>
<circle fill="#FFAC00" stroke="#FFFFFF" stroke-width="3" cx="68.071" cy="39.084" r="24"/>
<path display="none" fill="#FFFFFF" d="M69.377,59.544c-0.719,0.72-1.895,0.72-2.612,0L47.61,40.389
	c-0.719-0.718-0.719-1.895,0-2.612l19.155-19.154c0.718-0.718,1.894-0.718,2.612,0l19.156,19.154c0.717,0.718,0.717,1.895,0,2.614
	L69.377,59.544z"/>
<ellipse display="none" fill="#FFFFFF" stroke="#FFAC00" stroke-width="2" cx="67.821" cy="44.806" rx="12" ry="4.027"/>
<circle display="none" fill="#FFAC00" cx="68" cy="29.055" r="7"/>
<circle display="none" fill="#FFFFFF" cx="68" cy="29.055" r="2.333"/>
<polygon display="none" fill="#FFFFFF" points="74.385,34.791 68,46.75 61.616,34.791 "/>
<polygon display="none" fill="#FFAC00" points="74.385,31.875 68,43.834 61.616,31.875 "/>
<ellipse display="none" fill="#FFFFFF" stroke="#FFAC00" stroke-width="2" cx="68.071" cy="45.056" rx="12" ry="4.027"/>
<rect x="61.963" y="37.368" display="none" fill="#FFFFFF" stroke="#FFFFFF" stroke-width="2" width="12.217" height="5.228"/>
<ellipse display="none" fill="#FFFFFF" stroke="#FFAC00" stroke-width="2" cx="68.135" cy="28.012" rx="2.875" ry="2.929"/>
<g display="none">
	<g display="inline">
		<path fill="#FFFFFF" d="M72.807,35.832c0-2.63-2.093-4.759-4.672-4.759c-2.58,0-4.671,2.129-4.671,4.759
			c0,0.125,0.027,0.242,0.036,0.365h-0.036v5.227h2.194v3.854h4.953v-3.854h2.195v-5.227H72.77
			C72.779,36.074,72.807,35.957,72.807,35.832z"/>
	</g>
	<g display="inline">
		<path fill="none" stroke="#FFAC00" stroke-width="2" d="M72.807,35.832c0-2.63-2.093-4.759-4.672-4.759
			c-2.58,0-4.671,2.129-4.671,4.759c0,0.125,0.027,0.242,0.036,0.365h-0.036v5.227h2.194v3.854h4.953v-3.854h2.195v-5.227H72.77
			C72.779,36.074,72.807,35.957,72.807,35.832z"/>
	</g>
</g>
<path display="none" fill="#FFAC00" d="M80.902,47.316c0.418,0.418,0.466,1.059,0.104,1.42l-1.891,1.892
	c-0.361,0.361-1.002,0.313-1.42-0.104l-5.053-5.051c-0.418-0.421-0.468-1.06-0.104-1.422l1.892-1.891
	c0.361-0.362,1.002-0.314,1.42,0.104L80.902,47.316z"/>
<polygon display="none" fill="#FFAC00" points="72.498,45.407 72.086,41.708 75.786,42.119 "/>
<circle display="none" fill="#FFFFFF" stroke="#FFAC00" stroke-width="2" cx="66.085" cy="35.707" r="8.836"/>
<ellipse transform="matrix(0.7071 0.7071 -0.7071 0.7071 45.1798 -34.7729)" display="none" fill="#FFAC00" cx="64.564" cy="37.15" rx="5.639" ry="4.186"/>
<ellipse transform="matrix(0.7071 0.7071 -0.7071 0.7071 44.3502 -36.8942)" display="none" fill="#FFFFFF" cx="66.709" cy="35.086" rx="6.859" ry="5.163"/>
<rect y="6" display="none" fill="#48B5E9" width="132" height="73"/>
<path fill="#FFFFFF" d="M81.609,48.404c0.488,0.486,0.593,1.184,0.229,1.546l-1.891,1.891c-0.361,0.361-1.059,0.259-1.547-0.229
	l-5.885-5.885c-0.488-0.486-0.592-1.185-0.229-1.547l1.894-1.891c0.358-0.362,1.057-0.258,1.545,0.23L81.609,48.404z"/>
<polygon fill="#FFFFFF" points="72.248,45.536 71.836,41.837 75.536,42.248 "/>
<circle fill="none" stroke="#FFFFFF" stroke-width="2" cx="65.836" cy="35.835" r="8.836"/>
<path display="none" fill="#FFFFFF" d="M60.325,33.283c1.634-1.635,1.222,1.765,3.425,3.967c2.202,2.202,6.185,2.372,4.551,4.007
	c-1.634,1.636-4.745,1.175-6.947-1.026C59.151,38.028,58.69,34.918,60.325,33.283z"/>
<ellipse transform="matrix(0.7071 0.7071 -0.7071 0.7071 44.3649 -36.6875)" fill="none" cx="66.467" cy="35.208" rx="6.859" ry="5.164"/>
</svg>
