<?xml version="1.0" encoding="utf-8"?>
<!-- Generator: Adobe Illustrator 12.0.0, SVG Export Plug-In . SVG Version: 6.00 Build 51448)  -->
<!DOCTYPE svg PUBLIC "-//W3C//DTD SVG 1.1//EN" "http://www.w3.org/Graphics/SVG/1.1/DTD/svg11.dtd" [
	<!ENTITY ns_svg "http://www.w3.org/2000/svg">
	<!ENTITY ns_xlink "http://www.w3.org/1999/xlink">
]>
<svg  version="1.1" id="Layer_1" xmlns="&ns_svg;" xmlns:xlink="&ns_xlink;" width="40" height="40" viewBox="6.12 29.873 40 40"
	 overflow="visible" enable-background="new 6.12 29.873 40 40" xml:space="preserve">
<circle display="none" fill="#48B4E8" stroke="#FFFFFF" stroke-width="3" cx="26.119" cy="49.874" r="18"/>
<path display="none" d="M27.099,65.219c-0.54,0.539-1.42,0.539-1.958,0L10.773,50.853c-0.539-0.54-0.539-1.421,0-1.959L25.14,34.528
	c0.538-0.539,1.419-0.539,1.958,0l14.366,14.366c0.538,0.538,0.538,1.42,0,1.959L27.099,65.219z"/>
<circle display="none" fill="none" stroke="#FFFFFF" stroke-width="3" cx="44.807" cy="53.167" r="18"/>
<path display="none" fill="#FFFFFF" d="M33.502,47.521v2.672h3.688v1.734h-3.688v3.423h5.188v1.813h-7.219V45.709h7.219v1.813
	L33.502,47.521L33.502,47.521z"/>
<path display="none" fill="#FFFFFF" d="M48.088,57.318l-5.563-7.25v7.094h-1.953V45.709h0.984l5.406,6.906v-6.906h1.953v11.609
	H48.088z"/>
<path display="none" fill="#FFFFFF" d="M37.917,45.063h1.951l-0.369,0.703h5.941v1.213h-6.627c-0.199,0.223-0.476,0.334-0.826,0.334
	H36.51v-1.336h0.773c0.129,0,0.223-0.07,0.28-0.211L37.917,45.063z M37.706,47.682h7.154v2.18h0.984v1.248H44.86v1.478
	c0,0.563-0.398,0.845-1.195,0.845h-0.158l-2.566,1.071h7.226c0.246,0,0.369-0.101,0.369-0.299v-0.545h1.969v1.036
	c0,0.656-0.491,0.984-1.478,0.984h-4.43l-3.955,1.213h9.369c0.223,0,0.334-0.094,0.334-0.281v-0.772h1.969v1.318
	c0,0.668-0.492,1.002-1.477,1.002h-4.922v2.952h-1.881v-2.952h-7.031v-1.144l3.955-1.336h-3.48v-0.984l2.953-1.266h-2.725v-2.32
	h-1.072v-1.248h1.072V47.682z M39.956,58.703h2.021c-0.353,0.914-0.697,1.488-1.037,1.723c-0.353,0.258-0.756,0.387-1.213,0.387
	h-2.883v-1.405h2.108C39.352,59.406,39.686,59.172,39.956,58.703z M39.323,49.861H40.5l-0.142-0.563h1.688l0.158,0.563h1.055v-1.072
	h-3.938v1.072H39.323z M42.821,52.322c0.293,0,0.438-0.123,0.438-0.369v-0.844h-3.938v1.213h1.283l-0.299-0.703h1.67l0.334,0.703
	H42.821z M46.847,45.063h1.881l-0.299,0.633h4.395v1.283h-5.01l-0.019,0.053c-0.198,0.434-0.539,0.65-1.021,0.65h-1.213v-1.266h0.51
	c0.164,0,0.281-0.105,0.353-0.316L46.847,45.063z M50.415,47.523h1.969l-2.285,2.971l0.598,0.703
	c0.271,0.316,0.574,0.475,0.914,0.475h1.056v1.494h-1.881c-0.293,0-0.539-0.129-0.738-0.387l-0.879-1.055l-0.756,0.967
	c-0.224,0.315-0.463,0.475-0.722,0.475h-1.774v-1.494h1.002c0.151,0,0.306-0.117,0.457-0.352l0.703-0.879l-1.74-2.058h1.986
	l0.737,0.861L50.415,47.523z M47.76,58.703h2.039l0.211,0.439c0.117,0.176,0.328,0.264,0.634,0.264h2.021v1.406H49.87
	c-0.762,0-1.295-0.334-1.6-1.002L47.76,58.703z"/>
<circle display="none" fill="#48B4E8" stroke="#FFFFFF" stroke-width="3" cx="27.87" cy="51.219" r="9"/>
<polygon display="none" fill="#FFFFFF" points="25.406,47.218 32.333,51.218 25.405,55.218 "/>
<ellipse fill="#48B5E9" stroke="#FFFFFF" stroke-width="2" cx="25.994" cy="58.316" rx="15.152" ry="5.086"/>
<rect x="16.177" y="52.344" fill="#48B5E9" width="19.425" height="3.759"/>
<ellipse fill="#48B5E9" stroke="#FFFFFF" stroke-width="2" cx="26.075" cy="36.793" rx="3.63" ry="3.699"/>
<g>
	<g>
		<path fill="#FFFFFF" d="M31.973,46.669c0-3.321-2.639-6.009-5.899-6.009c-3.258,0-5.896,2.69-5.896,6.009
			c0,0.158,0.034,0.307,0.045,0.459h-0.045v6.599h2.771v4.866h6.254v-4.866h2.771v-6.599h-0.045
			C31.938,46.974,31.973,46.825,31.973,46.669z"/>
	</g>
	<g>
		<path fill="#48B5E9" stroke="#FFFFFF" stroke-width="2" d="M31.973,46.669c0-3.321-2.639-6.009-5.899-6.009
			c-3.258,0-5.896,2.69-5.896,6.009c0,0.158,0.034,0.307,0.045,0.459h-0.045v6.599h2.771v4.866h6.254v-4.866h2.771v-6.599h-0.045
			C31.938,46.974,31.973,46.825,31.973,46.669z"/>
	</g>
</g>
<circle display="none" fill="#FFAB00" stroke="#FFFFFF" stroke-width="3" cx="25.5" cy="49.555" r="24"/>
<path display="none" fill="#FFFFFF" d="M26.807,70.016c-0.72,0.719-1.896,0.719-2.613,0L5.04,50.859
	c-0.719-0.718-0.719-1.896,0-2.612l19.154-19.155c0.719-0.718,1.894-0.718,2.612,0l19.156,19.155c0.717,0.718,0.717,1.895,0,2.612
	L26.807,70.016z"/>
<circle display="none" fill="#FFFFFF" stroke="#FFAB00" stroke-width="2" cx="25.5" cy="49.554" r="11.5"/>
<line display="none" fill="none" stroke="#FFAB00" stroke-width="3" x1="9.37" y1="49.373" x2="19.87" y2="49.373"/>
<line display="none" fill="none" stroke="#FFAB00" stroke-width="3" x1="25.87" y1="55.623" x2="25.87" y2="66.123"/>
<line display="none" fill="none" stroke="#FFAB00" stroke-width="3" x1="25.87" y1="32.623" x2="25.87" y2="43.123"/>
<line display="none" fill="none" stroke="#FFAB00" stroke-width="3" x1="31.87" y1="49.373" x2="42.37" y2="49.373"/>
<circle display="none" fill="#FFAB00" cx="49.741" cy="37.415" r="8.736"/>
<polygon display="none" fill="#FFFFFF" points="57.709,44.573 49.741,59.498 41.774,44.573 "/>
<polygon display="none" fill="#FFAB00" points="57.709,40.934 49.741,55.857 41.774,40.934 "/>
<rect x="19.038" y="43.087" display="none" fill="#FFFFFF" stroke="#FFFFFF" stroke-width="2" width="9.162" height="3.92"/>
<ellipse display="none" fill="#FFFFFF" stroke="#FFFFFF" stroke-width="2" cx="23.667" cy="36.069" rx="2.156" ry="2.197"/>
<g display="none">
	<g display="inline">
		<path fill="#FFFFFF" d="M27.17,41.935c0-1.972-1.568-3.569-3.504-3.569c-1.935,0-3.502,1.598-3.502,3.569
			c0,0.094,0.02,0.182,0.027,0.273h-0.027v3.92h1.645v2.89h3.715v-2.89h1.646v-3.92h-0.026C27.149,42.116,27.17,42.028,27.17,41.935
			z"/>
	</g>
	<g display="inline">
		<path fill="none" stroke="#48B4E8" stroke-width="2" d="M27.17,41.935c0-1.972-1.568-3.569-3.504-3.569
			c-1.935,0-3.502,1.598-3.502,3.569c0,0.094,0.02,0.182,0.027,0.273h-0.027v3.92h1.645v2.89h3.715v-2.89h1.646v-3.92h-0.026
			C27.149,42.116,27.17,42.028,27.17,41.935z"/>
	</g>
</g>
<polygon display="none" fill="#FFAB00" stroke="#FFFFFF" stroke-width="2" points="55.241,20.234 49.741,29.762 44.241,20.234 "/>
<polygon display="none" fill="#FFAB00" stroke="#FFFFFF" stroke-width="2" points="47.53,32.998 42.03,42.998 36.53,32.998 "/>
<path display="none" fill="#FFAB00" stroke="#FFFFFF" stroke-width="2" d="M63.03,26.748c0,2.899-2.35,5.25-5.25,5.25H26.282
	c-2.901,0-5.252-2.351-5.252-5.25v-10.5c0-2.899,2.351-5.25,5.252-5.25H57.78c2.9,0,5.25,2.351,5.25,5.25V26.748z"/>
<ellipse display="none" fill="#306698" cx="39.584" cy="26.574" rx="17.465" ry="6.299"/>
<ellipse display="none" fill="#FFFFFF" cx="39.584" cy="25.836" rx="12.884" ry="4.461"/>
<polygon display="none" fill="#48B4E8" stroke="#FFFFFF" points="48.095,31.873 40.266,0.873 54.143,7.021 "/>
<circle display="none" fill="none" stroke="#FFFFFF" stroke-width="2" cx="40.5" cy="41.554" r="11.5"/>
<text transform="matrix(1 0 0 1 34.245 49.248)" display="none" fill="#FFFFFF" enable-background="new    " font-family="'Consolas-Bold'" font-size="24">i</text>
</svg>
