<?xml version="1.0" encoding="utf-8"?>
<!-- Generator: Adobe Illustrator 12.0.0, SVG Export Plug-In  -->
<!DOCTYPE svg PUBLIC "-//W3C//DTD SVG 1.1//EN" "http://www.w3.org/Graphics/SVG/1.1/DTD/svg11.dtd" [
	<!ENTITY ns_flows "http://ns.adobe.com/Flows/1.0/">
	<!ENTITY ns_svg "http://www.w3.org/2000/svg">
	<!ENTITY ns_xlink "http://www.w3.org/1999/xlink">
]>
<svg  version="1.1" xmlns="&ns_svg;" xmlns:xlink="&ns_xlink;" xmlns:a="http://ns.adobe.com/AdobeSVGViewerExtensions/3.0/"
	 width="40" height="40" viewBox="-0.5 -0.5 40 40" enable-background="new -0.5 -0.5 40 40" xml:space="preserve">
<defs>
</defs>
<circle fill="#48B4E8" stroke="#FFFFFF" stroke-width="3" cx="19.5" cy="19.5" r="18"/>
<path fill="#FFFFFF" d="M20.479,34.845c-0.539,0.539-1.42,0.539-1.958,0L4.154,20.479c-0.539-0.539-0.539-1.421,0-1.959
	L18.521,4.154c0.538-0.539,1.419-0.539,1.958,0L34.846,18.52c0.538,0.538,0.538,1.42,0,1.959L20.479,34.845z"/>
<ellipse fill="#FFFFFF" stroke="#48B4E8" stroke-width="2" cx="19.5" cy="23.979" rx="9" ry="3.021"/>
<rect x="14.919" y="18.213" fill="#FFFFFF" stroke="#FFFFFF" stroke-width="2" width="9.162" height="3.92"/>
<ellipse fill="#FFFFFF" stroke="#48B4E8" stroke-width="2" cx="19.548" cy="11.196" rx="2.156" ry="2.197"/>
<g>
	<g>
		<path fill="#FFFFFF" d="M23.051,17.061c0-1.972-1.568-3.569-3.504-3.569c-1.935,0-3.502,1.598-3.502,3.569
			c0,0.094,0.02,0.182,0.027,0.273h-0.027v3.92h1.646v2.89h3.714v-2.89h1.646v-3.92h-0.027
			C23.031,17.243,23.051,17.155,23.051,17.061z"/>
	</g>
	<g>
		<path fill="none" stroke="#48B4E8" stroke-width="2" d="M23.051,17.061c0-1.972-1.568-3.569-3.504-3.569
			c-1.935,0-3.502,1.598-3.502,3.569c0,0.094,0.02,0.182,0.027,0.273h-0.027v3.92h1.646v2.89h3.714v-2.89h1.646v-3.92h-0.027
			C23.031,17.243,23.051,17.155,23.051,17.061z"/>
	</g>
</g>
</svg>
