<?xml version="1.0" encoding="utf-8"?>
<!-- Generator: Adobe Illustrator 12.0.0, SVG Export Plug-In . SVG Version: 6.00 Build 51448)  -->
<!DOCTYPE svg PUBLIC "-//W3C//DTD SVG 1.1//EN" "http://www.w3.org/Graphics/SVG/1.1/DTD/svg11.dtd" [
	<!ENTITY ns_svg "http://www.w3.org/2000/svg">
	<!ENTITY ns_xlink "http://www.w3.org/1999/xlink">
]>
<svg  version="1.1" id="Layer_1" xmlns="&ns_svg;" xmlns:xlink="&ns_xlink;" width="40" height="40" viewBox="20 20 40 40"
	 overflow="visible" enable-background="new 25.12 12.681 40 40" xml:space="preserve">
<circle display="none" fill="#48B4E8" stroke="#FFFFFF" stroke-width="3" cx="26.119" cy="29.682" r="18"/>
<path display="none" fill="#FFFFFF" d="M27.098,45.026c-0.539,0.539-1.42,0.539-1.958,0L10.773,30.66
	c-0.539-0.539-0.539-1.421,0-1.959L25.14,14.335c0.538-0.539,1.419-0.539,1.958,0l14.367,14.366c0.538,0.538,0.538,1.42,0,1.959
	L27.098,45.026z"/>
<circle display="none" fill="none" stroke="#FFFFFF" stroke-width="3" cx="44.807" cy="32.975" r="18"/>
<path display="none" fill="#FFFFFF" d="M33.502,27.329v2.672h3.688v1.734h-3.688v3.423h5.188v1.813h-7.219V25.517h7.219v1.813
	L33.502,27.329L33.502,27.329z"/>
<path display="none" fill="#FFFFFF" d="M48.088,37.126l-5.563-7.25v7.094h-1.953V25.517h0.984l5.406,6.906v-6.906h1.953v11.609
	H48.088z"/>
<text transform="matrix(1 0 0 1 56.5497 13.7191)" display="none" fill="#FFFFFF" enable-background="new    " font-family="'TrebuchetMS-Bold'" font-size="16">EN</text>
<path fill="#FFFFFF" d="M37.917,24.87h1.951l-0.369,0.703h5.941v1.213h-6.627c-0.199,0.223-0.475,0.334-0.826,0.334H36.51v-1.336
	h0.773c0.129,0,0.223-0.07,0.281-0.211L37.917,24.87z M37.706,27.489h7.154v2.18h0.985v1.248H44.86v1.477
	c0,0.563-0.398,0.844-1.195,0.844h-0.158L40.94,34.31h7.225c0.246,0,0.369-0.1,0.369-0.299v-0.545h1.969v1.037
	c0,0.656-0.492,0.983-1.477,0.983h-4.43l-3.955,1.214h9.369c0.224,0,0.335-0.095,0.335-0.281v-0.773h1.969v1.318
	c0,0.668-0.492,1.002-1.478,1.002h-4.922v2.953h-1.881v-2.953h-7.031v-1.143l3.955-1.337h-3.48v-0.983l2.953-1.267h-2.725v-2.32
	h-1.072v-1.248h1.072L37.706,27.489L37.706,27.489z M39.956,38.511h2.021c-0.352,0.914-0.697,1.488-1.037,1.723
	c-0.352,0.258-0.756,0.387-1.213,0.387h-2.883v-1.406h2.109C39.352,39.214,39.686,38.979,39.956,38.511z M39.323,29.669H40.5
	l-0.141-0.563h1.688l0.158,0.563h1.055v-1.072h-3.938v1.072H39.323z M42.821,32.13c0.293,0,0.439-0.123,0.439-0.369v-0.844h-3.938
	v1.213h1.283l-0.299-0.703h1.67l0.334,0.703H42.821z M46.847,24.87h1.881l-0.299,0.633h4.395v1.283h-5.01l-0.019,0.053
	c-0.198,0.434-0.539,0.65-1.021,0.65h-1.212v-1.266h0.509c0.164,0,0.281-0.105,0.353-0.316L46.847,24.87z M50.415,27.331h1.969
	l-2.285,2.971l0.598,0.703c0.271,0.316,0.574,0.475,0.914,0.475h1.056v1.494h-1.881c-0.293,0-0.539-0.129-0.738-0.387l-0.879-1.055
	l-0.756,0.967c-0.224,0.316-0.463,0.475-0.722,0.475h-1.774V31.48h1.002c0.151,0,0.306-0.117,0.457-0.352l0.703-0.879l-1.74-2.057
	h1.986l0.737,0.861L50.415,27.331z M47.76,38.511h2.039l0.211,0.439c0.117,0.176,0.328,0.264,0.634,0.264h2.021v1.406H49.87
	c-0.762,0-1.295-0.334-1.6-1.002L47.76,38.511z"/>
<circle display="none" fill="#48B4E8" stroke="#FFFFFF" stroke-width="3" cx="27.87" cy="31.026" r="9"/>
<polygon display="none" fill="#FFFFFF" points="25.406,27.025 32.333,31.025 25.405,35.025 "/>
<ellipse display="none" fill="#FFFFFF" stroke="#48B4E8" stroke-width="2" cx="26.119" cy="34.16" rx="9" ry="3.021"/>
<rect x="21.538" y="28.395" display="none" fill="#FFFFFF" stroke="#FFFFFF" stroke-width="2" width="9.162" height="3.92"/>
<ellipse display="none" fill="#FFFFFF" stroke="#48B4E8" stroke-width="2" cx="26.167" cy="21.377" rx="2.156" ry="2.197"/>
<g display="none">
	<g display="inline">
		<path fill="#FFFFFF" d="M29.67,27.242c0-1.972-1.568-3.569-3.504-3.569c-1.935,0-3.502,1.598-3.502,3.569
			c0,0.094,0.02,0.182,0.027,0.273h-0.027v3.92h1.646v2.891h3.714v-2.891h1.646v-3.92h-0.027
			C29.65,27.424,29.67,27.336,29.67,27.242z"/>
	</g>
	<g display="inline">
		<path fill="none" stroke="#48B4E8" stroke-width="2" d="M29.67,27.242c0-1.972-1.568-3.569-3.504-3.569
			c-1.935,0-3.502,1.598-3.502,3.569c0,0.094,0.02,0.182,0.027,0.273h-0.027v3.92h1.646v2.891h3.714v-2.891h1.646v-3.92h-0.027
			C29.65,27.424,29.67,27.336,29.67,27.242z"/>
	</g>
</g>
<circle display="none" fill="#FFAB00" stroke="#FFFFFF" stroke-width="3" cx="25.5" cy="29.362" r="24"/>
<path display="none" fill="#FFFFFF" d="M26.807,49.822c-0.719,0.719-1.895,0.719-2.612,0L5.04,30.667
	c-0.719-0.718-0.719-1.895,0-2.612L24.194,8.9c0.719-0.718,1.894-0.718,2.612,0l19.156,19.155c0.717,0.718,0.717,1.895,0,2.613
	L26.807,49.822z"/>
<circle display="none" fill="#FFFFFF" stroke="#FFAB00" stroke-width="2" cx="25.5" cy="29.361" r="11.5"/>
<line display="none" fill="none" stroke="#FFAB00" stroke-width="3" x1="25.87" y1="35.431" x2="25.87" y2="45.931"/>
<line display="none" fill="none" stroke="#FFAB00" stroke-width="3" x1="25.87" y1="12.431" x2="25.87" y2="22.931"/>
<line display="none" fill="none" stroke="#FFAB00" stroke-width="3" x1="31.87" y1="29.181" x2="42.37" y2="29.181"/>
<circle display="none" fill="#FFAB00" cx="49.741" cy="17.222" r="8.736"/>
<circle display="none" fill="#FFFFFF" cx="49.741" cy="14.222" r="2.912"/>
<polygon display="none" fill="#FFFFFF" points="57.709,24.38 49.741,39.306 41.774,24.38 "/>
<polygon display="none" fill="#FFAB00" points="57.709,20.741 49.741,35.665 41.774,20.741 "/>
<rect x="19.038" y="22.895" display="none" fill="#FFFFFF" stroke="#FFFFFF" stroke-width="2" width="9.162" height="3.92"/>
<ellipse display="none" fill="#FFFFFF" stroke="#FFFFFF" stroke-width="2" cx="23.667" cy="15.877" rx="2.156" ry="2.197"/>
<g display="none">
	<g display="inline">
		<path fill="#FFFFFF" d="M27.17,21.742c0-1.972-1.568-3.569-3.504-3.569c-1.935,0-3.502,1.598-3.502,3.569
			c0,0.094,0.02,0.182,0.027,0.273h-0.027v3.92h1.645v2.89h3.715v-2.89h1.646v-3.92h-0.027C27.15,21.924,27.17,21.836,27.17,21.742z
			"/>
	</g>
	<g display="inline">
		<path fill="none" stroke="#48B4E8" stroke-width="2" d="M27.17,21.742c0-1.972-1.568-3.569-3.504-3.569
			c-1.935,0-3.502,1.598-3.502,3.569c0,0.094,0.02,0.182,0.027,0.273h-0.027v3.92h1.645v2.89h3.715v-2.89h1.646v-3.92h-0.027
			C27.15,21.924,27.17,21.836,27.17,21.742z"/>
	</g>
</g>
<polygon display="none" fill="#FFAB00" points="46.577,13.908 42.077,21.703 37.577,13.908 "/>
</svg>
