<?xml version="1.0" encoding="utf-8"?>
<!-- Generator: Adobe Illustrator 12.0.0, SVG Export Plug-In  -->
<!DOCTYPE svg PUBLIC "-//W3C//DTD SVG 1.1//EN" "http://www.w3.org/Graphics/SVG/1.1/DTD/svg11.dtd" [
	<!ENTITY ns_flows "http://ns.adobe.com/Flows/1.0/">
	<!ENTITY ns_svg "http://www.w3.org/2000/svg">
	<!ENTITY ns_xlink "http://www.w3.org/1999/xlink">
]>
<svg  version="1.1" xmlns="&ns_svg;" xmlns:xlink="&ns_xlink;" xmlns:a="http://ns.adobe.com/AdobeSVGViewerExtensions/3.0/"
	 width="43" height="62" viewBox="20.12 10.443 43 62" enable-background="new 20.12 10.443 43 62" xml:space="preserve">
<defs>
</defs>
<circle display="none" fill="#48B4E8" stroke="#FFFFFF" stroke-width="3" cx="26.119" cy="79.444" r="18"/>
<path display="none" fill="#FFFFFF" d="M27.098,94.789c-0.539,0.539-1.42,0.539-1.958,0L10.773,80.423
	c-0.539-0.539-0.539-1.421,0-1.959L25.14,64.098c0.538-0.539,1.419-0.539,1.958,0l14.367,14.366c0.538,0.538,0.538,1.42,0,1.959
	L27.098,94.789z"/>
<circle display="none" fill="#48B4E8" stroke="#FFFFFF" stroke-width="3" cx="27.87" cy="80.789" r="9"/>
<ellipse display="none" fill="#FFFFFF" stroke="#48B4E8" stroke-width="2" cx="26.167" cy="71.14" rx="2.156" ry="2.197"/>
<g display="none">
	<g display="inline">
		<path fill="#FFFFFF" d="M29.67,77.005c0-1.972-1.568-3.569-3.504-3.569c-1.935,0-3.502,1.598-3.502,3.569
			c0,0.094,0.02,0.182,0.027,0.273h-0.027v3.92h1.646v2.89h3.714v-2.89h1.646v-3.92h-0.027C29.65,77.187,29.67,77.099,29.67,77.005z
			"/>
	</g>
	<g display="inline">
		<path fill="none" stroke="#48B4E8" stroke-width="2" d="M29.67,77.005c0-1.972-1.568-3.569-3.504-3.569
			c-1.935,0-3.502,1.598-3.502,3.569c0,0.094,0.02,0.182,0.027,0.273h-0.027v3.92h1.646v2.89h3.714v-2.89h1.646v-3.92h-0.027
			C29.65,77.187,29.67,77.099,29.67,77.005z"/>
	</g>
</g>
<circle display="none" fill="#FFAB00" stroke="#FFFFFF" stroke-width="3" cx="25.5" cy="79.125" r="24"/>
<path display="none" fill="#FFFFFF" d="M26.807,99.585c-0.719,0.719-1.895,0.719-2.612,0L5.04,80.43
	c-0.719-0.718-0.719-1.895,0-2.612l19.154-19.155c0.719-0.718,1.894-0.718,2.612,0l19.156,19.155c0.717,0.718,0.717,1.895,0,2.613
	L26.807,99.585z"/>
<circle display="none" fill="#FFFFFF" stroke="#FFAB00" stroke-width="2" cx="25.5" cy="79.124" r="11.5"/>
<line display="none" fill="none" stroke="#FFAB00" stroke-width="3" x1="25.87" y1="62.193" x2="25.87" y2="72.693"/>
<circle display="none" fill="#FFAB00" cx="49.741" cy="66.985" r="8.736"/>
<circle display="none" fill="#FFFFFF" cx="49.741" cy="63.985" r="2.912"/>
<polygon display="none" fill="#FFAB00" points="57.709,70.504 49.741,85.429 41.774,70.504 "/>
<rect x="19.038" y="72.657" display="none" fill="#FFFFFF" stroke="#FFFFFF" stroke-width="2" width="9.162" height="3.92"/>
<ellipse display="none" fill="#FFFFFF" stroke="#FFFFFF" stroke-width="2" cx="23.667" cy="65.64" rx="2.156" ry="2.197"/>
<g display="none">
	<g display="inline">
		<path fill="#FFFFFF" d="M27.17,71.505c0-1.972-1.568-3.569-3.504-3.569c-1.935,0-3.502,1.598-3.502,3.569
			c0,0.094,0.02,0.182,0.027,0.273h-0.027v3.92h1.645v2.89h3.715v-2.89h1.646v-3.92h-0.027C27.15,71.687,27.17,71.599,27.17,71.505z
			"/>
	</g>
	<g display="inline">
		<path fill="none" stroke="#48B4E8" stroke-width="2" d="M27.17,71.505c0-1.972-1.568-3.569-3.504-3.569
			c-1.935,0-3.502,1.598-3.502,3.569c0,0.094,0.02,0.182,0.027,0.273h-0.027v3.92h1.645v2.89h3.715v-2.89h1.646v-3.92h-0.027
			C27.15,71.687,27.17,71.599,27.17,71.505z"/>
	</g>
</g>
<text transform="matrix(1 0 0 1 22.8662 46.9434)" display="none" fill="#FFFFFF" font-family="'DFZongYi-W7-WIN-BF'" font-size="14">閣下在此</text>
<polygon display="none" fill="#FFAB00" points="54.241,52.671 49.741,60.466 45.241,52.671 "/>
<path display="none" fill="#FFAB00" d="M79.741,44.694c0,2.208-1.789,4-4,4h-52c-2.208,0-4-1.792-4-4V32.693c0-2.208,1.791-4,4-4h52
	c2.211,0,4,1.791,4,4V44.694z"/>
<path display="none" fill="#FFFFFF" d="M24.476,37.545v7.656H22.78V32.555h5.687v3.842c0,0.766-0.479,1.148-1.436,1.148H24.476z
	 M26.827,33.867h-2.351v0.547h2.351V33.867z M24.476,35.686v0.533h1.955c0.266,0,0.396-0.091,0.396-0.273v-0.26H24.476z
	 M26.225,37.654h1.627l-0.109,0.205h4.539v1.094l-2.256,1.285c0.184,0.064,0.369,0.096,0.561,0.096h2.037v1.258h-3.076
	c-0.254,0-0.479-0.063-0.67-0.191l-0.41-0.246l-0.506,0.287c-0.182,0.101-0.418,0.15-0.711,0.15h-2.46v-1.258h1.804
	c0.137,0,0.266-0.022,0.383-0.068L25.706,39.5h-0.807v-1.148h0.779c0.109,0,0.191-0.05,0.246-0.15L26.225,37.654z M30.819,32.555
	h3.814v11.334c0,0.839-0.486,1.258-1.463,1.258h-1.436v-0.451c-0.1,0.036-0.205,0.055-0.314,0.055h-6.289v-2.898h7.054v1.859h0.383
	c0.246,0,0.369-0.105,0.369-0.314v-5.852h-2.557c-0.801,0-1.203-0.314-1.203-0.943v-4.047H30.819z M30.532,43.547
	c0.074,0,0.109-0.023,0.109-0.068v-0.424h-3.992v0.492H30.532z M26.827,39.35h1.148l0.465,0.205l0.998-0.492h-2.365
	C27.01,39.199,26.928,39.295,26.827,39.35z M32.938,34.414v-0.547h-2.119v0.547H32.938z M32.938,36.219v-0.533h-2.119v0.219
	c0,0.21,0.074,0.314,0.219,0.314H32.938z"/>
<path display="none" fill="#FFFFFF" d="M48.975,32.664v1.805h-5.797v10.623h-1.982V34.469h-4.703v-1.805H48.975z M43.493,35.904
	h2.037l1.299,5.195c0.064,0.328,0.215,0.492,0.451,0.492h1.039v1.805h-2.037c-0.602,0-0.984-0.346-1.148-1.039L43.493,35.904z"/>
<path display="none" fill="#FFFFFF" d="M62.852,33.553v1.846h-7.369L53.5,38.447v6.754h-1.969v-5.906h-1.094v-2.037h1.148
	c0.246,0,0.451-0.137,0.615-0.41l0.971-1.449h-2.57v-1.846h3.801l0.738-1.107h2.242l-0.711,1.107H62.852z M62.633,38.352v1.859
	H59.42V43h3.719v1.859h-9.311V43h3.459v-2.789H54.17v-1.859h3.117v-2.133h2.133v2.133H62.633z"/>
<polygon fill="#FFAB00" points="46.494,63.671 41.994,71.466 37.494,63.671 "/>
<path display="none" fill="#FFAB00" d="M71.741,55.694c0,2.208-1.789,4-4,4h-52c-2.208,0-4-1.792-4-4V43.693c0-2.208,1.791-4,4-4h52
	c2.211,0,4,1.791,4,4V55.694z"/>
<path display="none" fill="#FFFFFF" d="M16.476,48.545v7.656H14.78V43.555h5.687v3.842c0,0.766-0.479,1.148-1.436,1.148H16.476z
	 M18.827,44.867h-2.351v0.547h2.351V44.867z M16.476,46.686v0.533h1.955c0.266,0,0.396-0.091,0.396-0.273v-0.26H16.476z
	 M18.225,48.654h1.627l-0.109,0.205h4.539v1.094l-2.256,1.285c0.184,0.064,0.369,0.096,0.561,0.096h2.037v1.258h-3.076
	c-0.254,0-0.479-0.063-0.67-0.191l-0.41-0.246l-0.506,0.287c-0.182,0.101-0.418,0.15-0.711,0.15h-2.46v-1.258h1.804
	c0.137,0,0.266-0.022,0.383-0.068L17.706,50.5h-0.807v-1.148h0.779c0.109,0,0.191-0.05,0.246-0.15L18.225,48.654z M22.819,43.555
	h3.814v11.334c0,0.839-0.486,1.258-1.463,1.258h-1.436v-0.451c-0.1,0.036-0.205,0.055-0.314,0.055h-6.289v-2.898h7.054v1.859h0.383
	c0.246,0,0.369-0.105,0.369-0.314v-5.852h-2.557c-0.801,0-1.203-0.314-1.203-0.943v-4.047H22.819z M22.532,54.547
	c0.074,0,0.109-0.023,0.109-0.068v-0.424h-3.992v0.492H22.532z M18.827,50.35h1.148l0.465,0.205l0.998-0.492h-2.365
	C19.01,50.199,18.928,50.295,18.827,50.35z M24.938,45.414v-0.547h-2.119v0.547H24.938z M24.938,47.219v-0.533h-2.119v0.219
	c0,0.21,0.074,0.314,0.219,0.314H24.938z"/>
<path display="none" fill="#FFFFFF" d="M40.975,43.664v1.805h-5.797v10.623h-1.982V45.469h-4.703v-1.805H40.975z M35.493,46.904
	h2.037l1.299,5.195c0.064,0.328,0.215,0.492,0.451,0.492h1.039v1.805h-2.037c-0.602,0-0.984-0.346-1.148-1.039L35.493,46.904z"/>
<path display="none" fill="#FFFFFF" d="M54.852,44.553v1.846h-7.369L45.5,49.447v6.754h-1.969v-5.906h-1.094v-2.037h1.148
	c0.246,0,0.451-0.137,0.615-0.41l0.971-1.449h-2.57v-1.846h3.801l0.738-1.107h2.242l-0.711,1.107H54.852z M54.633,49.352v1.859
	H51.42V54h3.719v1.859h-9.311V54h3.459v-2.789H46.17v-1.859h3.117v-2.133h2.133v2.133H54.633z"/>
<path display="none" fill="#FFFFFF" d="M59.829,43.555h1.914v3.063h1.436v1.873h-1.436v5.852h1.49v1.695h-5.359
	c-0.691,0-1.039-0.328-1.039-0.984V44.334h1.805V54c0,0.228,0.109,0.342,0.328,0.342h0.861V43.555z M66.993,44.498h1.859v3.5
	c0,0.693-0.359,1.039-1.08,1.039h-2.188V54c0,0.228,0.105,0.342,0.314,0.342h3.131v1.695h-4.211c-0.766,0-1.148-0.328-1.148-0.984
	V43.555h1.914v3.664h1.148c0.174,0,0.26-0.104,0.26-0.314V44.498z"/>
<path fill="#FFAB00" stroke="#FFFFFF" stroke-width="2" d="M61.994,60.442c0,0.553-0.358,1.001-0.8,1.001H22.794
	c-0.443,0-0.801-0.448-0.801-1.001V12.444c0-0.554,0.358-1.001,0.801-1.001h38.399c0.441,0,0.8,0.447,0.8,1.001V60.442z"/>
<path fill="#FFFFFF" d="M33.555,24.251v4.208h-2.977v-4.208l-4.129-6.96h3.425l2.192,4.48l2.16-4.48h3.424L33.555,24.251z"/>
<path fill="#FFFFFF" d="M46.186,26.115c-0.24,0.539-0.576,0.997-1.008,1.376s-0.943,0.667-1.535,0.864
	c-0.593,0.197-1.24,0.296-1.945,0.296c-0.703,0-1.352-0.099-1.943-0.296s-1.104-0.485-1.535-0.864
	c-0.434-0.379-0.77-0.837-1.009-1.376c-0.239-0.539-0.36-1.145-0.36-1.816c0-0.683,0.121-1.293,0.36-1.832
	c0.239-0.538,0.575-0.997,1.009-1.376c0.432-0.378,0.943-0.667,1.535-0.864s1.24-0.296,1.943-0.296c0.705,0,1.353,0.099,1.945,0.296
	c0.592,0.197,1.104,0.485,1.535,0.864c0.432,0.379,0.768,0.838,1.008,1.376c0.24,0.539,0.36,1.149,0.36,1.832
	C46.546,24.971,46.426,25.576,46.186,26.115z M43.09,22.587c-0.32-0.427-0.783-0.64-1.393-0.64c-0.607,0-1.072,0.213-1.391,0.64
	c-0.32,0.427-0.48,0.992-0.48,1.696c0,0.747,0.168,1.325,0.504,1.736s0.791,0.616,1.367,0.616s1.033-0.205,1.369-0.616
	s0.504-0.989,0.504-1.736C43.571,23.579,43.411,23.014,43.09,22.587z"/>
<path fill="#FFFFFF" d="M54.194,28.443v-1.536h-0.031c-0.299,0.619-0.723,1.062-1.273,1.328c-0.549,0.267-1.133,0.4-1.752,0.4
	c-0.66,0-1.197-0.112-1.607-0.336s-0.736-0.501-0.977-0.832c-0.239-0.331-0.402-0.686-0.487-1.064
	c-0.085-0.378-0.128-0.717-0.128-1.016v-5.28h2.88v4.016c0,0.651,0.099,1.166,0.296,1.544s0.536,0.568,1.016,0.568
	c1.205,0,1.809-0.875,1.809-2.624v-3.504h2.881v8.336H54.194z"/>
<path fill="#FFFFFF" d="M35.163,41.459c-0.011-0.245-0.023-0.469-0.04-0.672s-0.024-0.416-0.024-0.64h-0.031
	c-0.352,0.544-0.736,0.931-1.152,1.16c-0.416,0.229-0.912,0.344-1.488,0.344c-0.395,0-0.779-0.051-1.152-0.152
	c-0.373-0.102-0.706-0.256-1-0.464c-0.293-0.208-0.527-0.478-0.703-0.808s-0.264-0.731-0.264-1.2c0-0.641,0.154-1.149,0.463-1.528
	c0.311-0.379,0.686-0.664,1.129-0.856c0.441-0.192,0.912-0.317,1.408-0.376s0.93-0.088,1.303-0.088c0.246,0,0.479,0.011,0.697,0.032
	s0.434,0.048,0.647,0.08c-0.011-0.48-0.165-0.84-0.464-1.08c-0.299-0.24-0.784-0.36-1.456-0.36c-0.47,0-0.923,0.048-1.36,0.144
	s-0.863,0.256-1.279,0.48l-0.049-1.952c0.607-0.245,1.182-0.405,1.721-0.48c0.538-0.075,1.08-0.112,1.623-0.112
	c0.533,0,1.041,0.062,1.521,0.185c0.479,0.123,0.899,0.322,1.257,0.6c0.356,0.277,0.643,0.635,0.855,1.072s0.32,0.965,0.32,1.584
	v3.264c0,0.097,0.002,0.222,0.008,0.376c0.005,0.155,0.016,0.315,0.031,0.48c0.016,0.165,0.032,0.333,0.049,0.504
	c0.016,0.171,0.039,0.325,0.072,0.464H35.163z M34.338,37.731c-0.229-0.011-0.418-0.017-0.568-0.017
	c-0.607,0-1.055,0.097-1.344,0.288c-0.287,0.192-0.432,0.459-0.432,0.8c0,0.299,0.111,0.528,0.336,0.688s0.512,0.24,0.863,0.24
	c0.268,0,0.51-0.059,0.729-0.176c0.219-0.117,0.405-0.269,0.561-0.456c0.154-0.187,0.271-0.397,0.352-0.632
	c0.08-0.234,0.12-0.469,0.12-0.704C34.774,37.752,34.568,37.742,34.338,37.731z"/>
<path fill="#FFFFFF" d="M45.434,35.427c-0.117-0.042-0.264-0.069-0.439-0.08s-0.365-0.016-0.568-0.016
	c-0.352,0-0.658,0.069-0.92,0.208s-0.477,0.323-0.648,0.552c-0.17,0.229-0.295,0.499-0.375,0.809
	c-0.08,0.309-0.121,0.634-0.121,0.976v3.584h-2.879v-8.336h2.623v1.536h0.033c0.266-0.576,0.594-1.008,0.982-1.296
	c0.391-0.288,0.883-0.433,1.48-0.433c0.117,0,0.268,0.008,0.448,0.024s0.357,0.04,0.528,0.072L45.434,35.427z"/>
<path fill="#FFFFFF" d="M48.811,38.131c0.084,0.565,0.33,0.974,0.734,1.224c0.406,0.25,0.982,0.376,1.729,0.376
	c0.363,0,0.768-0.048,1.217-0.144c0.447-0.096,0.885-0.261,1.312-0.496v2.032c-0.458,0.182-0.95,0.314-1.472,0.4
	c-0.523,0.085-1.051,0.128-1.584,0.128c-0.693,0-1.336-0.099-1.928-0.296s-1.104-0.482-1.537-0.856
	c-0.432-0.373-0.77-0.829-1.016-1.368c-0.245-0.538-0.367-1.149-0.367-1.832c0-0.65,0.102-1.242,0.303-1.776
	c0.203-0.533,0.496-0.992,0.881-1.376c0.384-0.384,0.854-0.683,1.408-0.896s1.184-0.32,1.888-0.32c0.769,0,1.419,0.128,1.952,0.384
	c0.533,0.256,0.965,0.6,1.295,1.032c0.332,0.433,0.571,0.928,0.721,1.488s0.225,1.149,0.225,1.768v0.528H48.811z M51.594,35.243
	c-0.256-0.325-0.661-0.488-1.216-0.488c-0.513,0-0.896,0.163-1.151,0.488c-0.257,0.325-0.406,0.744-0.449,1.256h3.201
	C51.979,35.987,51.85,35.568,51.594,35.243z"/>
<path fill="#FFFFFF" d="M30.571,54.459v-4.784H27.05v4.784h-2.976V43.291h2.976v4.272h3.521v-4.272h2.975v11.168H30.571z"/>
<path fill="#FFFFFF" d="M37.995,51.131c0.084,0.565,0.33,0.974,0.734,1.224c0.406,0.25,0.982,0.376,1.729,0.376
	c0.363,0,0.768-0.048,1.217-0.144c0.447-0.096,0.885-0.261,1.312-0.496v2.032c-0.458,0.182-0.95,0.314-1.472,0.4
	c-0.523,0.085-1.051,0.128-1.584,0.128c-0.693,0-1.336-0.099-1.928-0.296s-1.104-0.482-1.537-0.856
	c-0.432-0.373-0.77-0.829-1.016-1.368c-0.245-0.538-0.367-1.149-0.367-1.832c0-0.65,0.102-1.242,0.303-1.776
	c0.203-0.533,0.496-0.992,0.881-1.376c0.384-0.384,0.854-0.683,1.408-0.896s1.184-0.32,1.888-0.32c0.769,0,1.419,0.128,1.952,0.384
	c0.533,0.256,0.965,0.6,1.295,1.032c0.332,0.433,0.571,0.928,0.721,1.488s0.225,1.149,0.225,1.768v0.528H37.995z M40.778,48.243
	c-0.256-0.325-0.661-0.488-1.216-0.488c-0.513,0-0.896,0.163-1.151,0.488c-0.257,0.325-0.406,0.744-0.449,1.256h3.201
	C41.163,48.987,41.034,48.568,40.778,48.243z"/>
<path fill="#FFFFFF" d="M51.209,48.427c-0.117-0.042-0.264-0.069-0.439-0.08s-0.365-0.016-0.568-0.016
	c-0.352,0-0.658,0.069-0.92,0.208s-0.477,0.323-0.648,0.552c-0.17,0.229-0.295,0.499-0.375,0.809
	c-0.08,0.309-0.121,0.634-0.121,0.976v3.584h-2.879v-8.336h2.623v1.536h0.033c0.266-0.576,0.594-1.008,0.982-1.296
	c0.391-0.288,0.883-0.433,1.48-0.433c0.117,0,0.268,0.008,0.448,0.024s0.357,0.04,0.528,0.072L51.209,48.427z"/>
<path fill="#FFFFFF" d="M54.586,51.131c0.084,0.565,0.33,0.974,0.734,1.224c0.406,0.25,0.982,0.376,1.729,0.376
	c0.363,0,0.768-0.048,1.217-0.144c0.447-0.096,0.885-0.261,1.313-0.496v2.032c-0.459,0.182-0.951,0.314-1.473,0.4
	c-0.523,0.085-1.051,0.128-1.584,0.128c-0.693,0-1.336-0.099-1.928-0.296s-1.104-0.482-1.537-0.856
	c-0.432-0.373-0.77-0.829-1.016-1.368c-0.245-0.538-0.367-1.149-0.367-1.832c0-0.65,0.102-1.242,0.303-1.776
	c0.203-0.533,0.496-0.992,0.881-1.376c0.384-0.384,0.854-0.683,1.408-0.896s1.184-0.32,1.889-0.32c0.768,0,1.418,0.128,1.951,0.384
	c0.533,0.256,0.965,0.6,1.295,1.032c0.332,0.433,0.572,0.928,0.721,1.488c0.15,0.56,0.225,1.149,0.225,1.768v0.528H54.586z
	 M57.37,48.243c-0.256-0.325-0.66-0.488-1.215-0.488c-0.514,0-0.896,0.163-1.152,0.488s-0.406,0.744-0.449,1.256h3.201
	C57.754,48.987,57.625,48.568,57.37,48.243z"/>
<text transform="matrix(1 0 0 1 44.4126 13.584)" display="none"><tspan x="0" y="0" display="inline" fill="#FFFFFF" font-family="'ArticulateExtrabold'" font-size="16">You</tspan><tspan x="3.129" y="13" display="inline" fill="#FFFFFF" font-family="'ArticulateExtrabold'" font-size="16">are</tspan><tspan x="-2.646" y="26" display="inline" fill="#FFFFFF" font-family="'ArticulateExtrabold'" font-size="16">Here</tspan></text>
</svg>
