<?xml version="1.0" encoding="utf-8"?>
<!-- Generator: Adobe Illustrator 12.0.0, SVG Export Plug-In  -->
<!DOCTYPE svg PUBLIC "-//W3C//DTD SVG 1.1//EN" "http://www.w3.org/Graphics/SVG/1.1/DTD/svg11.dtd" [
	<!ENTITY ns_flows "http://ns.adobe.com/Flows/1.0/">
	<!ENTITY ns_svg "http://www.w3.org/2000/svg">
	<!ENTITY ns_xlink "http://www.w3.org/1999/xlink">
]>
<svg  version="1.1" xmlns="&ns_svg;" xmlns:xlink="&ns_xlink;" xmlns:a="http://ns.adobe.com/AdobeSVGViewerExtensions/3.0/"
	 width="45" height="36" viewBox="19.12 10.75 45 36" enable-background="new 19.12 10.75 45 36" xml:space="preserve">
<defs>
</defs>
<circle display="none" fill="#48B4E8" stroke="#FFFFFF" stroke-width="3" cx="26.119" cy="50.751" r="18"/>
<path display="none" fill="#FFFFFF" d="M27.098,66.096c-0.539,0.539-1.42,0.539-1.958,0L10.773,51.729
	c-0.539-0.539-0.539-1.421,0-1.959L25.14,35.405c0.538-0.539,1.419-0.539,1.958,0l14.367,14.366c0.538,0.538,0.538,1.42,0,1.959
	L27.098,66.096z"/>
<circle display="none" fill="none" stroke="#FFFFFF" stroke-width="3" cx="44.807" cy="54.044" r="18"/>
<path display="none" fill="#FFFFFF" d="M33.502,48.398v2.672h3.688v1.734h-3.688v3.422h5.188v1.813h-7.219V46.586h7.219v1.813
	H33.502z"/>
<path display="none" fill="#FFFFFF" d="M48.088,58.195l-5.563-7.25v7.094h-1.953V46.586h0.984l5.406,6.906v-6.906h1.953v11.609
	H48.088z"/>
<text transform="matrix(1 0 0 1 56.5493 34.7891)" display="none" fill="#FFFFFF" font-family="'TrebuchetMS-Bold'" font-size="16">EN</text>
<path display="none" fill="#FFFFFF" d="M37.917,45.939h1.951l-0.369,0.703h5.941v1.213h-6.627c-0.199,0.223-0.475,0.334-0.826,0.334
	H36.51v-1.336h0.773c0.129,0,0.223-0.07,0.281-0.211L37.917,45.939z M37.706,48.559h7.154v2.18h0.984v1.248H44.86v1.477
	c0,0.563-0.398,0.844-1.195,0.844h-0.158l-2.566,1.072h7.225c0.246,0,0.369-0.1,0.369-0.299v-0.545h1.969v1.037
	c0,0.656-0.492,0.984-1.477,0.984h-4.43l-3.955,1.213h9.369c0.223,0,0.334-0.094,0.334-0.281v-0.773h1.969v1.318
	c0,0.668-0.492,1.002-1.477,1.002h-4.922v2.953h-1.881v-2.953h-7.031v-1.143l3.955-1.336h-3.48v-0.984l2.953-1.266h-2.725v-2.32
	h-1.072v-1.248h1.072V48.559z M39.956,59.58h2.021c-0.352,0.914-0.697,1.488-1.037,1.723c-0.352,0.258-0.756,0.387-1.213,0.387
	h-2.883v-1.406h2.109C39.352,60.283,39.686,60.049,39.956,59.58z M39.323,50.738H40.5l-0.141-0.563h1.688l0.158,0.563h1.055v-1.072
	h-3.938V50.738z M42.821,53.199c0.293,0,0.439-0.123,0.439-0.369v-0.844h-3.938v1.213h1.283l-0.299-0.703h1.67l0.334,0.703H42.821z
	 M46.846,45.939h1.881l-0.299,0.633h4.395v1.283h-5.01l-0.018,0.053c-0.199,0.434-0.539,0.65-1.02,0.65h-1.213v-1.266h0.51
	c0.164,0,0.281-0.105,0.352-0.316L46.846,45.939z M50.415,48.4h1.969l-2.285,2.971l0.598,0.703c0.27,0.316,0.574,0.475,0.914,0.475
	h1.055v1.494h-1.881c-0.293,0-0.539-0.129-0.738-0.387l-0.879-1.055l-0.756,0.967c-0.223,0.316-0.463,0.475-0.721,0.475h-1.775
	v-1.494h1.002c0.152,0,0.305-0.117,0.457-0.352l0.703-0.879l-1.74-2.057h1.986l0.738,0.861L50.415,48.4z M47.76,59.58h2.039
	l0.211,0.439c0.117,0.176,0.328,0.264,0.633,0.264h2.021v1.406H49.87c-0.762,0-1.295-0.334-1.6-1.002L47.76,59.58z"/>
<circle display="none" fill="#48B4E8" stroke="#FFFFFF" stroke-width="3" cx="27.87" cy="52.096" r="9"/>
<ellipse display="none" fill="#FFFFFF" stroke="#48B4E8" stroke-width="2" cx="26.167" cy="42.446" rx="2.156" ry="2.197"/>
<g display="none">
	<g display="inline">
		<path fill="#FFFFFF" d="M29.67,48.312c0-1.972-1.568-3.569-3.504-3.569c-1.935,0-3.502,1.598-3.502,3.569
			c0,0.094,0.02,0.182,0.027,0.273h-0.027v3.92h1.646v2.89h3.714v-2.89h1.646v-3.92h-0.027C29.65,48.493,29.67,48.405,29.67,48.312z
			"/>
	</g>
	<g display="inline">
		<path fill="none" stroke="#48B4E8" stroke-width="2" d="M29.67,48.312c0-1.972-1.568-3.569-3.504-3.569
			c-1.935,0-3.502,1.598-3.502,3.569c0,0.094,0.02,0.182,0.027,0.273h-0.027v3.92h1.646v2.89h3.714v-2.89h1.646v-3.92h-0.027
			C29.65,48.493,29.67,48.405,29.67,48.312z"/>
	</g>
</g>
<circle display="none" fill="#FFAB00" stroke="#FFFFFF" stroke-width="3" cx="25.5" cy="50.432" r="24"/>
<path display="none" fill="#FFFFFF" d="M26.807,70.892c-0.719,0.719-1.895,0.719-2.612,0L5.04,51.736
	c-0.719-0.718-0.719-1.895,0-2.612l19.154-19.155c0.719-0.718,1.894-0.718,2.612,0l19.156,19.155c0.717,0.718,0.717,1.895,0,2.613
	L26.807,70.892z"/>
<circle display="none" fill="#FFFFFF" stroke="#FFAB00" stroke-width="2" cx="25.5" cy="50.431" r="11.5"/>
<line display="none" fill="none" stroke="#FFAB00" stroke-width="3" x1="25.87" y1="33.5" x2="25.87" y2="44"/>
<circle display="none" fill="#FFAB00" cx="49.741" cy="38.292" r="8.736"/>
<circle display="none" fill="#FFFFFF" cx="49.741" cy="35.292" r="2.912"/>
<polygon display="none" fill="#FFFFFF" points="57.709,45.45 49.741,60.375 41.774,45.45 "/>
<polygon display="none" fill="#FFAB00" points="57.709,41.811 49.741,56.735 41.774,41.811 "/>
<rect x="19.038" y="43.964" display="none" fill="#FFFFFF" stroke="#FFFFFF" stroke-width="2" width="9.162" height="3.92"/>
<ellipse display="none" fill="#FFFFFF" stroke="#FFFFFF" stroke-width="2" cx="23.667" cy="36.946" rx="2.156" ry="2.197"/>
<g display="none">
	<g display="inline">
		<path fill="#FFFFFF" d="M27.17,42.812c0-1.972-1.568-3.569-3.504-3.569c-1.935,0-3.502,1.598-3.502,3.569
			c0,0.094,0.02,0.182,0.027,0.273h-0.027v3.92h1.645v2.89h3.715v-2.89h1.646v-3.92h-0.027C27.15,42.993,27.17,42.905,27.17,42.812z
			"/>
	</g>
	<g display="inline">
		<path fill="none" stroke="#48B4E8" stroke-width="2" d="M27.17,42.812c0-1.972-1.568-3.569-3.504-3.569
			c-1.935,0-3.502,1.598-3.502,3.569c0,0.094,0.02,0.182,0.027,0.273h-0.027v3.92h1.645v2.89h3.715v-2.89h1.646v-3.92h-0.027
			C27.15,42.993,27.17,42.905,27.17,42.812z"/>
	</g>
</g>
<text transform="matrix(1 0 0 1 22.8662 18.25)" display="none" fill="#FFFFFF" font-family="'DFZongYi-W7-WIN-BF'" font-size="14">閣下在此</text>
<polygon display="none" fill="#FFAB00" points="54.241,23.978 49.741,31.772 45.241,23.978 "/>
<path display="none" fill="#FFAB00" d="M79.741,16c0,2.208-1.789,4-4,4h-52c-2.208,0-4-1.792-4-4V4c0-2.208,1.791-4,4-4h52
	c2.211,0,4,1.791,4,4V16z"/>
<path display="none" fill="#FFFFFF" d="M24.476,8.852v7.656H22.78V3.861h5.687v3.842c0,0.766-0.479,1.148-1.436,1.148H24.476z
	 M26.827,5.174h-2.351v0.547h2.351V5.174z M24.476,6.992v0.533h1.955c0.266,0,0.396-0.091,0.396-0.273v-0.26H24.476z M26.225,8.961
	h1.627l-0.109,0.205h4.539v1.094l-2.256,1.285c0.184,0.064,0.369,0.096,0.561,0.096h2.037v1.258h-3.076
	c-0.254,0-0.479-0.063-0.67-0.191l-0.41-0.246l-0.506,0.287c-0.182,0.101-0.418,0.15-0.711,0.15h-2.46v-1.258h1.804
	c0.137,0,0.266-0.022,0.383-0.068l-1.271-0.766h-0.807V9.658h0.779c0.109,0,0.191-0.05,0.246-0.15L26.225,8.961z M30.819,3.861
	h3.814v11.334c0,0.839-0.486,1.258-1.463,1.258h-1.436v-0.451c-0.1,0.036-0.205,0.055-0.314,0.055h-6.289v-2.898h7.054v1.859h0.383
	c0.246,0,0.369-0.105,0.369-0.314V8.852h-2.557c-0.801,0-1.203-0.314-1.203-0.943V3.861H30.819z M30.532,14.854
	c0.074,0,0.109-0.023,0.109-0.068v-0.424h-3.992v0.492H30.532z M26.827,10.656h1.148l0.465,0.205l0.998-0.492h-2.365
	C27.01,10.506,26.928,10.602,26.827,10.656z M32.938,5.721V5.174h-2.119v0.547H32.938z M32.938,7.525V6.992h-2.119v0.219
	c0,0.21,0.074,0.314,0.219,0.314H32.938z"/>
<path display="none" fill="#FFFFFF" d="M48.975,3.971v1.805h-5.797v10.623h-1.982V5.775h-4.703V3.971H48.975z M43.493,7.211h2.037
	l1.299,5.195c0.064,0.328,0.215,0.492,0.451,0.492h1.039v1.805h-2.037c-0.602,0-0.984-0.346-1.148-1.039L43.493,7.211z"/>
<path display="none" fill="#FFFFFF" d="M62.852,4.859v1.846h-7.369L53.5,9.754v6.754h-1.969v-5.906h-1.094V8.564h1.148
	c0.246,0,0.451-0.137,0.615-0.41l0.971-1.449h-2.57V4.859h3.801l0.738-1.107h2.242l-0.711,1.107H62.852z M62.633,9.658v1.859H59.42
	v2.789h3.719v1.859h-9.311v-1.859h3.459v-2.789H54.17V9.658h3.117V7.525h2.133v2.133H62.633z"/>
<polygon fill="#FFAB00" stroke="#FFFFFF" stroke-width="2" points="47.53,33.875 42.03,43.875 36.53,33.875 "/>
<path fill="#FFAB00" stroke="#FFFFFF" stroke-width="2" d="M63.03,27.625c0,2.899-2.35,5.25-5.25,5.25H26.282
	c-2.901,0-5.252-2.351-5.252-5.25v-10.5c0-2.899,2.351-5.25,5.252-5.25H57.78c2.9,0,5.25,2.351,5.25,5.25V27.625z"/>
<path fill="#FFFFFF" d="M26.51,15.375h3.648l2.375,4.688l2.234-4.688h3.695l-4.375,7.781v4.219h-3.203v-4.219L26.51,15.375z"/>
<path fill="#FFFFFF" d="M38.776,23.188c0-1.748,0.269-2.898,0.805-3.452c0.537-0.553,1.686-0.83,3.445-0.83
	c1.781,0,2.914,0.295,3.398,0.885c0.484,0.589,0.727,1.756,0.727,3.498c0,1.732-0.286,2.862-0.859,3.389
	c-0.572,0.527-1.682,0.791-3.328,0.791c-1.724,0-2.854-0.303-3.391-0.908C39.042,25.956,38.776,24.831,38.776,23.188z
	 M41.526,23.203c0,1.004,0.1,1.615,0.297,1.835c0.198,0.214,0.602,0.321,1.211,0.321c0.604,0,0.982-0.128,1.133-0.384
	c0.156-0.261,0.234-0.857,0.234-1.788c0-0.936-0.083-1.531-0.25-1.788c-0.161-0.256-0.533-0.384-1.117-0.384
	c-0.672,0-1.091,0.131-1.258,0.392C41.61,21.669,41.526,22.268,41.526,23.203z"/>
<path fill="#FFFFFF" d="M48.526,19h2.75v4.943c0,0.559,0.076,0.934,0.227,1.127c0.156,0.192,0.451,0.289,0.883,0.289
	c0.475,0,0.844-0.123,1.109-0.368c0.271-0.25,0.406-0.566,0.406-0.947V19h2.75v8.375h-2.75v-1.531
	c-0.338,1.083-1.15,1.625-2.438,1.625c-1.958,0-2.938-0.949-2.938-2.847V19z"/>
</svg>
