<?xml version="1.0" encoding="utf-8"?>
<!-- Generator: Adobe Illustrator 12.0.0, SVG Export Plug-In  -->
<!DOCTYPE svg PUBLIC "-//W3C//DTD SVG 1.1//EN" "http://www.w3.org/Graphics/SVG/1.1/DTD/svg11.dtd" [
	<!ENTITY ns_flows "http://ns.adobe.com/Flows/1.0/">
	<!ENTITY ns_svg "http://www.w3.org/2000/svg">
	<!ENTITY ns_xlink "http://www.w3.org/1999/xlink">
]>
<svg  version="1.1" xmlns="&ns_svg;" xmlns:xlink="&ns_xlink;" xmlns:a="http://ns.adobe.com/AdobeSVGViewerExtensions/3.0/"
	 width="65" height="35" viewBox="17.12 -0.917 65 35" enable-background="new 17.12 -0.917 65 35" xml:space="preserve">
<defs>
</defs>
<circle display="none" fill="#48B4E8" stroke="#FFFFFF" stroke-width="3" cx="26.119" cy="52.084" r="18"/>
<text transform="matrix(1 0 0 1 56.5493 36.1226)" display="none" fill="#FFFFFF" font-family="'TrebuchetMS-Bold'" font-size="16">EN</text>
<text transform="matrix(1 0 0 1 68.5571 36.6655)" display="none" fill="#FFFFFF" font-family="'DFZongYi-W5-WINP-BF'" font-size="18">繁</text>
<circle display="none" fill="#FFAB00" stroke="#FFFFFF" stroke-width="3" cx="25.5" cy="51.765" r="24"/>
<path display="none" fill="#FFFFFF" d="M26.807,72.225c-0.719,0.719-1.895,0.719-2.612,0L5.04,53.07
	c-0.719-0.718-0.719-1.895,0-2.612l19.154-19.155c0.719-0.718,1.894-0.718,2.612,0l19.156,19.155c0.717,0.718,0.717,1.895,0,2.613
	L26.807,72.225z"/>
<circle display="none" fill="#FFAB00" cx="49.741" cy="39.625" r="8.736"/>
<circle display="none" fill="#FFFFFF" cx="49.741" cy="36.625" r="2.912"/>
<text transform="matrix(1 0 0 1 22.8662 19.5835)" display="none" fill="#FFFFFF" font-family="'DFZongYi-W7-WIN-BF'" font-size="14">閣下在此</text>
<polygon fill="#FFAB00" stroke="#FFFFFF" stroke-width="2" points="55.241,22.445 49.741,31.972 44.241,22.445 "/>
<path fill="#FFAB00" stroke="#FFFFFF" stroke-width="2" d="M80.741,17.534c0,2.282-1.849,4.133-4.133,4.133H22.874
	c-2.282,0-4.133-1.851-4.133-4.133V5.133C18.741,2.851,20.592,1,22.874,1h53.734c2.284,0,4.133,1.851,4.133,4.133V17.534z"/>
<path fill="#FFFFFF" d="M24.476,10.185v7.656H22.78V5.195h5.687v3.842c0,0.766-0.479,1.148-1.436,1.148H24.476z M26.827,6.507
	h-2.351v0.547h2.351V6.507z M24.476,8.326v0.533h1.955c0.266,0,0.396-0.091,0.396-0.273v-0.26H24.476z M26.225,10.294h1.627
	L27.743,10.5h4.539v1.094l-2.256,1.285c0.184,0.064,0.369,0.096,0.561,0.096h2.037v1.258h-3.076c-0.254,0-0.479-0.063-0.67-0.191
	l-0.41-0.246l-0.506,0.287c-0.182,0.101-0.418,0.15-0.711,0.15h-2.46v-1.258h1.804c0.137,0,0.266-0.022,0.383-0.068l-1.271-0.766
	h-0.807v-1.148h0.779c0.109,0,0.191-0.05,0.246-0.15L26.225,10.294z M30.819,5.195h3.814v11.334c0,0.839-0.486,1.258-1.463,1.258
	h-1.436v-0.451c-0.1,0.036-0.205,0.055-0.314,0.055h-6.289v-2.898h7.054v1.859h0.383c0.246,0,0.369-0.105,0.369-0.314v-5.852h-2.557
	c-0.801,0-1.203-0.314-1.203-0.943V5.195H30.819z M30.532,16.187c0.074,0,0.109-0.023,0.109-0.068v-0.424h-3.992v0.492H30.532z
	 M26.827,11.99h1.148l0.465,0.205l0.998-0.492h-2.365C27.01,11.839,26.928,11.935,26.827,11.99z M32.938,7.054V6.507h-2.119v0.547
	H32.938z M32.938,8.859V8.326h-2.119v0.219c0,0.21,0.074,0.314,0.219,0.314H32.938z"/>
<path fill="#FFFFFF" d="M48.975,5.304v1.805h-5.797v10.623h-1.982V7.109h-4.703V5.304H48.975z M43.493,8.544h2.037l1.299,5.195
	c0.064,0.328,0.215,0.492,0.451,0.492h1.039v1.805h-2.037c-0.602,0-0.984-0.346-1.148-1.039L43.493,8.544z"/>
<path fill="#FFFFFF" d="M62.852,6.193v1.846h-7.369L53.5,11.087v6.754h-1.969v-5.906h-1.094V9.898h1.148
	c0.246,0,0.451-0.137,0.615-0.41l0.971-1.449h-2.57V6.193h3.801l0.738-1.107h2.242l-0.711,1.107H62.852z M62.633,10.992v1.859H59.42
	v2.789h3.719V17.5h-9.311V15.64h3.459v-2.789H54.17v-1.859h3.117V8.859h2.133v2.133H62.633z"/>
<path fill="#FFFFFF" d="M67.829,5.195h1.914v3.063h1.436v1.873h-1.436v5.852h1.49v1.695h-5.359c-0.691,0-1.039-0.328-1.039-0.984
	V5.974h1.805v9.666c0,0.228,0.109,0.342,0.328,0.342h0.861V5.195z M74.993,6.138h1.859v3.5c0,0.693-0.359,1.039-1.08,1.039h-2.188
	v4.963c0,0.228,0.105,0.342,0.314,0.342h3.131v1.695h-4.211c-0.766,0-1.148-0.328-1.148-0.984V5.195h1.914v3.664h1.148
	c0.174,0,0.26-0.104,0.26-0.314V6.138z"/>
<path display="none" fill="#FFAB00" stroke="#FFFFFF" stroke-width="2" d="M63.03,28.958c0,2.899-2.35,5.25-5.25,5.25H26.282
	c-2.901,0-5.252-2.351-5.252-5.25v-10.5c0-2.899,2.351-5.25,5.252-5.25H57.78c2.9,0,5.25,2.351,5.25,5.25V28.958z"/>
<path display="none" fill="#FFFFFF" d="M26.51,16.708h3.648l2.375,4.688l2.234-4.688h3.695l-4.375,7.781v4.219h-3.203V24.49
	L26.51,16.708z"/>
<path display="none" fill="#FFFFFF" d="M38.776,24.521c0-1.748,0.269-2.898,0.805-3.452c0.537-0.553,1.686-0.83,3.445-0.83
	c1.781,0,2.914,0.295,3.398,0.885c0.484,0.589,0.727,1.756,0.727,3.498c0,1.732-0.286,2.862-0.859,3.389
	c-0.572,0.527-1.682,0.791-3.328,0.791c-1.724,0-2.854-0.303-3.391-0.908C39.042,27.289,38.776,26.165,38.776,24.521z
	 M41.526,24.537c0,1.004,0.1,1.615,0.297,1.835c0.198,0.214,0.602,0.321,1.211,0.321c0.604,0,0.982-0.128,1.133-0.384
	c0.156-0.261,0.234-0.857,0.234-1.788c0-0.936-0.083-1.531-0.25-1.788c-0.161-0.256-0.533-0.384-1.117-0.384
	c-0.672,0-1.091,0.131-1.258,0.392C41.61,23.002,41.526,23.601,41.526,24.537z"/>
<path display="none" fill="#FFFFFF" d="M48.526,20.333h2.75v4.943c0,0.559,0.076,0.934,0.227,1.127
	c0.156,0.192,0.451,0.289,0.883,0.289c0.475,0,0.844-0.123,1.109-0.368c0.271-0.25,0.406-0.566,0.406-0.947v-5.045h2.75v8.375h-2.75
	v-1.531c-0.338,1.083-1.15,1.625-2.438,1.625c-1.958,0-2.938-0.949-2.938-2.847V20.333z"/>
</svg>
