<?xml version="1.0" encoding="utf-8"?>
<!-- Generator: Adobe Illustrator 12.0.0, SVG Export Plug-In  -->
<!DOCTYPE svg PUBLIC "-//W3C//DTD SVG 1.1//EN" "http://www.w3.org/Graphics/SVG/1.1/DTD/svg11.dtd" [
	<!ENTITY ns_flows "http://ns.adobe.com/Flows/1.0/">
	<!ENTITY ns_svg "http://www.w3.org/2000/svg">
	<!ENTITY ns_xlink "http://www.w3.org/1999/xlink">
]>
<svg  version="1.1" xmlns="&ns_svg;" xmlns:xlink="&ns_xlink;" xmlns:a="http://ns.adobe.com/AdobeSVGViewerExtensions/3.0/"
	 width="61" height="33" viewBox="19.12 -0.25 61 33" enable-background="new 19.12 -0.25 61 33" xml:space="preserve">
<defs>
</defs>
<circle display="none" fill="#48B4E8" stroke="#FFFFFF" stroke-width="3" cx="26.119" cy="50.751" r="18"/>
<circle display="none" fill="#FFAB00" stroke="#FFFFFF" stroke-width="3" cx="25.5" cy="50.432" r="24"/>
<path display="none" fill="#FFFFFF" d="M26.807,70.892c-0.719,0.719-1.895,0.719-2.612,0L5.04,51.736
	c-0.719-0.718-0.719-1.895,0-2.612l19.154-19.155c0.719-0.718,1.894-0.718,2.612,0l19.156,19.155c0.717,0.718,0.717,1.895,0,2.613
	L26.807,70.892z"/>
<circle display="none" fill="#FFAB00" cx="49.741" cy="38.292" r="8.736"/>
<circle display="none" fill="#FFFFFF" cx="49.741" cy="35.292" r="2.912"/>
<text transform="matrix(1 0 0 1 22.8662 18.25)" display="none" fill="#FFFFFF" font-family="'DFZongYi-W7-WIN-BF'" font-size="14">閣下在此</text>
<polygon fill="#FFAB00" points="54.241,23.978 49.741,31.772 45.241,23.978 "/>
<path fill="#FFAB00" d="M79.741,16c0,2.208-1.789,4-4,4h-52c-2.208,0-4-1.792-4-4V4c0-2.208,1.791-4,4-4h52c2.211,0,4,1.791,4,4V16z
	"/>
<path fill="#FFFFFF" d="M24.476,8.852v7.656H22.78V3.861h5.687v3.842c0,0.766-0.479,1.148-1.436,1.148H24.476z M26.827,5.174h-2.351
	v0.547h2.351V5.174z M24.476,6.992v0.533h1.955c0.266,0,0.396-0.091,0.396-0.273v-0.26H24.476z M26.225,8.961h1.627l-0.109,0.205
	h4.539v1.094l-2.256,1.285c0.184,0.064,0.369,0.096,0.561,0.096h2.037v1.258h-3.076c-0.254,0-0.479-0.063-0.67-0.191l-0.41-0.246
	l-0.506,0.287c-0.182,0.101-0.418,0.15-0.711,0.15h-2.46v-1.258h1.804c0.137,0,0.266-0.022,0.383-0.068l-1.271-0.766h-0.807V9.658
	h0.779c0.109,0,0.191-0.05,0.246-0.15L26.225,8.961z M30.819,3.861h3.814v11.334c0,0.839-0.486,1.258-1.463,1.258h-1.436v-0.451
	c-0.1,0.036-0.205,0.055-0.314,0.055h-6.289v-2.898h7.054v1.859h0.383c0.246,0,0.369-0.105,0.369-0.314V8.852h-2.557
	c-0.801,0-1.203-0.314-1.203-0.943V3.861H30.819z M30.532,14.854c0.074,0,0.109-0.023,0.109-0.068v-0.424h-3.992v0.492H30.532z
	 M26.827,10.656h1.148l0.465,0.205l0.998-0.492h-2.365C27.01,10.506,26.928,10.602,26.827,10.656z M32.938,5.721V5.174h-2.119v0.547
	H32.938z M32.938,7.525V6.992h-2.119v0.219c0,0.21,0.074,0.314,0.219,0.314H32.938z"/>
<path fill="#FFFFFF" d="M48.975,3.971v1.805h-5.797v10.623h-1.982V5.775h-4.703V3.971H48.975z M43.493,7.211h2.037l1.299,5.195
	c0.064,0.328,0.215,0.492,0.451,0.492h1.039v1.805h-2.037c-0.602,0-0.984-0.346-1.148-1.039L43.493,7.211z"/>
<path fill="#FFFFFF" d="M62.852,4.859v1.846h-7.369L53.5,9.754v6.754h-1.969v-5.906h-1.094V8.564h1.148
	c0.246,0,0.451-0.137,0.615-0.41l0.971-1.449h-2.57V4.859h3.801l0.738-1.107h2.242l-0.711,1.107H62.852z M62.633,9.658v1.859H59.42
	v2.789h3.719v1.859h-9.311v-1.859h3.459v-2.789H54.17V9.658h3.117V7.525h2.133v2.133H62.633z"/>
<path fill="#FFFFFF" d="M67.829,3.861h1.914v3.063h1.436v1.873h-1.436v5.852h1.49v1.695h-5.359c-0.691,0-1.039-0.328-1.039-0.984
	V4.641h1.805v9.666c0,0.228,0.109,0.342,0.328,0.342h0.861V3.861z M74.993,4.805h1.859v3.5c0,0.693-0.359,1.039-1.08,1.039h-2.188
	v4.963c0,0.228,0.105,0.342,0.314,0.342h3.131v1.695h-4.211c-0.766,0-1.148-0.328-1.148-0.984V3.861h1.914v3.664h1.148
	c0.174,0,0.26-0.104,0.26-0.314V4.805z"/>
</svg>
