<?xml version="1.0" encoding="utf-8"?>
<!-- Generator: Adobe Illustrator 12.0.0, SVG Export Plug-In  -->
<!DOCTYPE svg PUBLIC "-//W3C//DTD SVG 1.1//EN" "http://www.w3.org/Graphics/SVG/1.1/DTD/svg11.dtd" [
	<!ENTITY ns_flows "http://ns.adobe.com/Flows/1.0/">
	<!ENTITY ns_svg "http://www.w3.org/2000/svg">
	<!ENTITY ns_xlink "http://www.w3.org/1999/xlink">
]>
<svg  version="1.1" xmlns="&ns_svg;" xmlns:xlink="&ns_xlink;" xmlns:a="http://ns.adobe.com/AdobeSVGViewerExtensions/3.0/"
	 width="52" height="52" viewBox="-0.88 -0.181 52 52" enable-background="new -0.88 -0.181 52 52" xml:space="preserve">
<defs>
</defs>
<circle display="none" fill="#48B4E8" stroke="#FFFFFF" stroke-width="3" cx="26.119" cy="25.82" r="18"/>
<path display="none" fill="#FFFFFF" d="M27.098,41.165c-0.539,0.539-1.42,0.539-1.958,0L10.773,26.799
	c-0.539-0.539-0.539-1.421,0-1.959L25.14,10.474c0.538-0.539,1.419-0.539,1.958,0L41.465,24.84c0.538,0.538,0.538,1.42,0,1.959
	L27.098,41.165z"/>
<ellipse display="none" fill="#FFFFFF" stroke="#48B4E8" stroke-width="2" cx="26.119" cy="30.299" rx="9" ry="3.021"/>
<rect x="21.538" y="24.533" display="none" fill="#FFFFFF" stroke="#FFFFFF" stroke-width="2" width="9.162" height="3.92"/>
<ellipse display="none" fill="#FFFFFF" stroke="#48B4E8" stroke-width="2" cx="26.167" cy="17.516" rx="2.156" ry="2.197"/>
<g display="none">
	<g display="inline">
		<path fill="#FFFFFF" d="M29.67,23.381c0-1.972-1.568-3.569-3.504-3.569c-1.935,0-3.502,1.598-3.502,3.569
			c0,0.094,0.02,0.182,0.027,0.273h-0.027v3.92h1.646v2.89h3.714v-2.89h1.646v-3.92h-0.027C29.65,23.563,29.67,23.475,29.67,23.381z
			"/>
	</g>
	<g display="inline">
		<path fill="none" stroke="#48B4E8" stroke-width="2" d="M29.67,23.381c0-1.972-1.568-3.569-3.504-3.569
			c-1.935,0-3.502,1.598-3.502,3.569c0,0.094,0.02,0.182,0.027,0.273h-0.027v3.92h1.646v2.89h3.714v-2.89h1.646v-3.92h-0.027
			C29.65,23.563,29.67,23.475,29.67,23.381z"/>
	</g>
</g>
<circle fill="#FFAB00" stroke="#FFFFFF" stroke-width="3" cx="25.5" cy="25.501" r="24"/>
<path fill="#FFFFFF" d="M26.807,45.961c-0.719,0.719-1.895,0.719-2.612,0L5.04,26.806c-0.719-0.718-0.719-1.895,0-2.612
	L24.194,5.039c0.719-0.718,1.894-0.718,2.612,0l19.156,19.155c0.717,0.718,0.717,1.895,0,2.613L26.807,45.961z"/>
<circle fill="#FFFFFF" stroke="#FFAB00" stroke-width="2" cx="25.5" cy="25.5" r="11.5"/>
<line fill="none" stroke="#FFAB00" stroke-width="3" x1="9.37" y1="25.319" x2="19.87" y2="25.319"/>
<line fill="none" stroke="#FFAB00" stroke-width="3" x1="25.87" y1="31.569" x2="25.87" y2="42.069"/>
<line fill="none" stroke="#FFAB00" stroke-width="3" x1="25.87" y1="8.569" x2="25.87" y2="19.069"/>
<line fill="none" stroke="#FFAB00" stroke-width="3" x1="31.87" y1="25.319" x2="42.37" y2="25.319"/>
</svg>
