<?xml version="1.0" encoding="utf-8"?>
<!-- Generator: Adobe Illustrator 12.0.0, SVG Export Plug-In . SVG Version: 6.00 Build 51448)  -->
<!DOCTYPE svg PUBLIC "-//W3C//DTD SVG 1.1//EN" "http://www.w3.org/Graphics/SVG/1.1/DTD/svg11.dtd" [
	<!ENTITY ns_svg "http://www.w3.org/2000/svg">
	<!ENTITY ns_xlink "http://www.w3.org/1999/xlink">
]>
<svg  version="1.1" id="Layer_1" xmlns="&ns_svg;" xmlns:xlink="&ns_xlink;" width="52" height="52" viewBox="-0.88 -0.181 52 52"
	 overflow="visible" enable-background="new -0.88 -0.181 52 52" xml:space="preserve">
<circle display="none" fill="#48B4E8" stroke="#FFFFFF" stroke-width="3" cx="26.119" cy="25.82" r="18"/>
<path display="none" fill="#FFFFFF" d="M27.099,41.165c-0.539,0.539-1.42,0.539-1.958,0L10.773,26.799
	c-0.539-0.541-0.539-1.421,0-1.959L25.14,10.474c0.539-0.539,1.419-0.539,1.958,0L41.465,24.84c0.538,0.538,0.538,1.42,0,1.959
	L27.099,41.165z"/>
<ellipse display="none" fill="#FFFFFF" stroke="#48B4E8" stroke-width="2" cx="26.119" cy="30.299" rx="9" ry="3.021"/>
<rect x="21.538" y="24.533" display="none" fill="#FFFFFF" stroke="#FFFFFF" stroke-width="2" width="9.162" height="3.92"/>
<ellipse display="none" fill="#FFFFFF" stroke="#48B4E8" stroke-width="2" cx="26.167" cy="17.516" rx="2.156" ry="2.197"/>
<g display="none">
	<g display="inline">
		<path fill="#FFFFFF" d="M29.67,23.381c0-1.972-1.567-3.569-3.504-3.569c-1.935,0-3.502,1.598-3.502,3.569
			c0,0.094,0.02,0.182,0.027,0.273h-0.027v3.921h1.646v2.889h3.714v-2.889h1.646v-3.921h-0.026
			C29.649,23.563,29.67,23.475,29.67,23.381z"/>
	</g>
	<g display="inline">
		<path fill="none" stroke="#48B4E8" stroke-width="2" d="M29.67,23.381c0-1.972-1.567-3.569-3.504-3.569
			c-1.935,0-3.502,1.598-3.502,3.569c0,0.094,0.02,0.182,0.027,0.273h-0.027v3.921h1.646v2.889h3.714v-2.889h1.646v-3.921h-0.026
			C29.649,23.563,29.67,23.475,29.67,23.381z"/>
	</g>
</g>
<circle fill="#FFAB00" cx="25.806" cy="25.6" r="24"/>
<path fill="none" d="M27.266,48.497c-0.806,0.805-2.121,0.805-2.924,0L2.909,27.06c-0.805-0.802-0.805-2.12,0-2.923L24.343,2.702
	c0.805-0.804,2.119-0.804,2.924,0l21.437,21.435c0.802,0.804,0.802,2.121,0,2.924L27.266,48.497z"/>
<g>
	<circle fill="#FFAB00" stroke="#FFFFFF" stroke-width="2" cx="25.391" cy="25.802" r="12.869"/>
	<line fill="none" stroke="#FFFFFF" stroke-width="3" x1="7.34" y1="25.6" x2="19.091" y2="25.6"/>
	<line fill="none" stroke="#FFFFFF" stroke-width="3" x1="25.806" y1="32.592" x2="25.806" y2="44.342"/>
	<line fill="none" stroke="#FFFFFF" stroke-width="3" x1="25.806" y1="6.856" x2="25.806" y2="18.606"/>
	<line fill="none" stroke="#FFFFFF" stroke-width="3" x1="32.518" y1="25.6" x2="44.268" y2="25.6"/>
</g>
</svg>
